<!-- Generated by IcoMoon.io -->
<svg version="1.1" xmlns="http://www.w3.org/2000/svg" width="28" height="28" viewBox="0 0 28 28">
<title>icon-checked</title>
<path fill="#fff" d="M28 14c0 7.732-6.268 14-14 14s-14-6.268-14-14c0-7.732 6.268-14 14-14s14 6.268 14 14z"></path>
<path fill="#e55570" d="M17.62 9.844c0.666-0.681 1.747-0.681 2.413 0s0.666 1.785 0 2.465l-6.637 6.78c-0.666 0.681-1.747 0.681-2.413 0s-0.666-1.785 0-2.465l6.637-6.78z"></path>
<path fill="#e55570" d="M13.397 16.624c0.666 0.681 0.666 1.785-0 2.465s-1.747 0.681-2.413 0l-3.017-3.082c-0.666-0.681-0.666-1.785 0-2.465s1.747-0.681 2.413 0l3.017 3.082z"></path>
</svg>
