<!-- Generated by IcoMoon.io -->
<svg version="1.1" xmlns="http://www.w3.org/2000/svg" width="28" height="28" viewBox="0 0 28 28">
<title>icon-m</title>
<path fill="#e55570" d="M28 14c0 7.732-6.268 14-14 14s-14-6.268-14-14c0-7.732 6.268-14 14-14s14 6.268 14 14z"></path>
<path fill="#fff" d="M9.472 11.37v5.266c0.025 0.197-0.025 0.369-0.172 0.517l-1.255 1.526v0.197h3.544v-0.197l-1.255-1.526c-0.148-0.148-0.197-0.32-0.172-0.517v-4.553l3.125 6.792h0.369l2.658-6.792v5.414c0 0.098-0.025 0.148-0.025 0.172s-0.025 0.049-0.074 0.098l-0.96 0.935v0.197h4.676v-0.197l-0.935-0.911c-0.098-0.049-0.123-0.148-0.098-0.271v-6.694c-0.025-0.098 0-0.197 0.098-0.271l0.96-0.911v-0.197h-3.298l-2.338 5.857-2.658-5.857h-3.47v0.197l1.107 1.329c0.098 0.123 0.172 0.246 0.172 0.394z"></path>
</svg>
