<!-- Generated by IcoMoon.io -->
<svg version="1.1" xmlns="http://www.w3.org/2000/svg" width="28" height="28" viewBox="0 0 28 28">
<title>icon-location-arrow</title>
<path fill="#fff" d="M14 26.963c-7.156 0-12.963-5.807-12.963-12.963s5.807-12.963 12.963-12.963c7.156 0 12.963 5.807 12.963 12.963s-5.807 12.963-12.963 12.963zM14 2.074c-6.533 0-11.926 5.393-11.926 11.926s5.393 11.926 11.926 11.926c6.533 0 11.926-5.393 11.926-11.926s-5.393-11.926-11.926-11.926zM13.378 21.778c-0.311 0-0.519-0.207-0.519-0.415l-0.83-5.393-5.393-0.83c-0.207 0-0.415-0.207-0.415-0.415s0.104-0.415 0.311-0.519l12.444-5.807c0.207-0.104 0.415 0 0.622 0.104s0.207 0.415 0.104 0.622l-5.807 12.444c-0.104 0.104-0.311 0.207-0.519 0.207zM8.504 14.311l4.044 0.622c0.207 0 0.415 0.207 0.415 0.415l0.622 4.044 4.459-9.644-9.541 4.563z"></path>
<path fill="#fff" d="M12.859 21.363h0.207v-0.016l-0.002-0.016-0.205 0.032zM12.030 15.97l0.205-0.032-0.023-0.15-0.15-0.023-0.032 0.205zM6.637 15.141l0.032-0.205-0.016-0.002h-0.016v0.207zM6.533 14.207l-0.088-0.188-0.005 0.002 0.093 0.186zM18.978 8.4l0.088 0.188 0.005-0.002-0.093-0.186zM19.704 9.126l-0.186-0.093-0.002 0.005 0.188 0.088zM13.896 21.57l0.147 0.147 0.026-0.026 0.015-0.033-0.188-0.088zM8.504 14.311l-0.089-0.187-0.606 0.29 0.664 0.102 0.032-0.205zM12.548 14.933l-0.032 0.205 0.016 0.002h0.016v-0.207zM12.963 15.348h-0.207v0.016l0.002 0.016 0.205-0.032zM13.585 19.393l-0.205 0.032 0.105 0.68 0.289-0.624-0.188-0.087zM18.044 9.748l0.188 0.087 0.242-0.523-0.519 0.248 0.089 0.187zM14 26.756c-7.041 0-12.756-5.715-12.756-12.756h-0.415c0 7.27 5.9 13.17 13.17 13.17v-0.415zM1.244 14c0-7.041 5.715-12.756 12.756-12.756v-0.415c-7.27 0-13.17 5.9-13.17 13.17h0.415zM14 1.244c7.041 0 12.756 5.715 12.756 12.756h0.415c0-7.27-5.9-13.17-13.17-13.17v0.415zM26.756 14c0 7.041-5.715 12.756-12.756 12.756v0.415c7.27 0 13.17-5.9 13.17-13.17h-0.415zM14 1.867c-6.648 0-12.133 5.485-12.133 12.133h0.415c0-6.419 5.3-11.719 11.719-11.719v-0.415zM1.867 14c0 6.648 5.485 12.133 12.133 12.133v-0.415c-6.419 0-11.719-5.3-11.719-11.719h-0.415zM14 26.133c6.648 0 12.133-5.485 12.133-12.133h-0.415c0 6.419-5.3 11.719-11.719 11.719v0.415zM26.133 14c0-6.648-5.485-12.133-12.133-12.133v0.415c6.419 0 11.719 5.3 11.719 11.719h0.415zM13.378 21.57c-0.228 0-0.311-0.143-0.311-0.207h-0.415c0 0.351 0.331 0.622 0.726 0.622v-0.415zM13.064 21.331l-0.83-5.393-0.41 0.063 0.83 5.393 0.41-0.063zM12.061 15.765l-5.393-0.83-0.063 0.41 5.393 0.83 0.063-0.41zM6.637 14.933c-0.036 0-0.090-0.020-0.139-0.069s-0.069-0.102-0.069-0.139h-0.415c0 0.171 0.083 0.325 0.19 0.432s0.261 0.19 0.432 0.19v-0.415zM6.43 14.726c0-0.14 0.069-0.269 0.196-0.333l-0.185-0.371c-0.287 0.144-0.426 0.43-0.426 0.704h0.415zM6.621 14.395l12.444-5.807-0.175-0.376-12.444 5.807 0.175 0.376zM19.070 8.586c0.059-0.036 0.089-0.032 0.168-0.010 0.082 0.019 0.165 0.062 0.269 0.114l0.185-0.371c-0.104-0.052-0.228-0.113-0.354-0.145-0.129-0.031-0.305-0.027-0.454 0.042l0.185 0.371zM19.507 8.689c0.020 0.010 0.047 0.037 0.055 0.11 0.012 0.085-0.003 0.156-0.044 0.234l0.371 0.185c0.063-0.129 0.099-0.317 0.085-0.466-0.018-0.16-0.095-0.341-0.282-0.435l-0.185 0.371zM19.516 9.038l-5.807 12.444 0.376 0.175 5.807-12.444-0.376-0.175zM13.75 21.424c-0.067 0.067-0.223 0.147-0.372 0.147v0.415c0.266 0 0.525-0.128 0.665-0.268l-0.293-0.293zM8.472 14.516l4.044 0.622 0.063-0.41-4.044-0.622-0.063 0.41zM12.548 15.141c0.036 0 0.090 0.020 0.139 0.069s0.069 0.102 0.069 0.139h0.415c0-0.171-0.083-0.325-0.19-0.432s-0.261-0.19-0.432-0.19v0.415zM12.758 15.38l0.622 4.044 0.41-0.063-0.622-4.044-0.41 0.063zM13.773 19.48l4.459-9.644-0.376-0.174-4.459 9.644 0.376 0.174zM17.955 9.561l-9.541 4.563 0.179 0.374 9.541-4.563-0.179-0.374z"></path>
</svg>
