<!-- Generated by IcoMoon.io -->
<svg version="1.1" xmlns="http://www.w3.org/2000/svg" width="28" height="28" viewBox="0 0 28 28">
<title>icon-user-settings</title>
<path fill="#fff" d="M21.052 26.963h-1.659c-0.415 0-0.726-0.207-0.933-0.622l-0.519-1.452c-0.207-0.104-0.519-0.207-0.726-0.415l-1.763 0.311c-0.415 0.104-0.726-0.104-0.933-0.415l-0.83-1.348c-0.207-0.311-0.207-0.726 0.104-1.037l1.141-1.244c0-0.104 0-0.207 0-0.415 0-0.104 0-0.207 0-0.415l-1.141-1.244c-0.311-0.311-0.311-0.726-0.104-1.037l0.83-1.348c0.207-0.311 0.622-0.519 0.933-0.415l1.763 0.311c0.207-0.104 0.519-0.311 0.726-0.415l0.622-1.556c0.104-0.311 0.519-0.622 0.933-0.622h1.659c0.415 0 0.726 0.207 0.933 0.622l0.622 1.556c0.207 0.104 0.519 0.207 0.726 0.415l1.763-0.311c0.415-0.104 0.726 0.104 0.933 0.415l0.83 1.348c0.207 0.311 0.207 0.726-0.104 1.037l-1.141 1.244c0 0.104 0 0.207 0 0.415s0 0.207 0 0.415l1.141 1.244c0.311 0.311 0.311 0.726 0.104 1.037l-1.037 1.244c-0.207 0.311-0.622 0.519-0.933 0.415l-1.763-0.311c-0.207 0.104-0.519 0.311-0.726 0.415l-0.622 1.556c-0.104 0.415-0.415 0.622-0.83 0.622zM17.319 23.333c0.104 0 0.207 0 0.311 0.104 0.311 0.207 0.622 0.415 0.933 0.519 0.104 0.104 0.207 0.207 0.311 0.311l0.622 1.763 0.726-0.104h0.83l0.622-1.659c0-0.104 0.207-0.207 0.311-0.311 0.311-0.104 0.622-0.311 0.933-0.519 0.104-0.104 0.207-0.104 0.415-0.104l1.97 0.311 0.726-1.244-1.244-1.348c-0.104-0.104-0.104-0.311-0.104-0.415 0-0.207 0-0.311 0-0.519s0-0.311 0-0.519c0-0.104 0-0.311 0.104-0.415l1.244-1.348-0.83-1.348-1.867 0.415c-0.104 0-0.311 0-0.415-0.104-0.311-0.207-0.622-0.415-0.933-0.519-0.104-0.104-0.207-0.207-0.311-0.311l-0.622-1.763-0.83 0.311h-0.83l-0.622 1.659c0 0.104-0.207 0.207-0.311 0.311-0.311 0.104-0.622 0.311-0.933 0.519-0.104 0.104-0.207 0.104-0.415 0.104l-1.97-0.311-0.622 1.141 1.244 1.348c0.104 0.104 0.104 0.311 0.104 0.415 0 0.207 0 0.311 0 0.519s0 0.311 0 0.519c0 0.104 0 0.311-0.104 0.415l-1.244 1.348 0.83 1.348 1.97-0.519c-0.104 0-0.104 0 0 0zM20.222 22.815c-1.452 0-2.593-1.141-2.593-2.593s1.141-2.593 2.593-2.593c1.452 0 2.593 1.141 2.593 2.593s-1.141 2.593-2.593 2.593zM20.222 18.667c-0.83 0-1.556 0.726-1.556 1.556s0.726 1.556 1.556 1.556c0.83 0 1.556-0.726 1.556-1.556s-0.726-1.556-1.556-1.556zM12.444 22.815h-9.852c-0.933 0-1.556-0.726-1.556-1.763v-0.311c0-3.837 3.111-5.081 5.6-6.015 0.311-0.104 0.519-0.207 0.83-0.311 1.348-0.519 1.348-1.037 1.348-1.659 0-0.726-0.104-1.244-0.83-1.867-0.933-1.037-1.763-2.074-1.763-4.148 0-3.526 2.178-5.704 5.704-5.704s5.704 2.178 5.704 5.704c0 2.074-0.83 3.111-1.763 4.044-0.622 0.622-0.726 1.244-0.726 1.867 0 0.311 0.104 0.726 0.519 1.141l-0.726 0.726c-0.726-0.726-0.83-1.452-0.83-1.867 0-0.83 0.104-1.659 1.037-2.593s1.452-1.556 1.452-3.319c0-3.007-1.659-4.667-4.667-4.667s-4.667 1.659-4.667 4.667c0 1.763 0.622 2.489 1.452 3.319 0.933 0.933 1.141 1.763 1.141 2.593s0 1.867-2.074 2.696c-0.207 0.104-0.519 0.207-0.726 0.311-2.489 0.933-4.978 1.97-4.978 5.081v0.311c0 0.207 0.104 0.726 0.519 0.726h9.852v1.037z"></path>
<path fill="#fff" d="M18.459 26.341l-0.195 0.070 0.004 0.012 0.006 0.011 0.186-0.093zM17.941 24.889l0.195-0.070-0.028-0.078-0.075-0.037-0.093 0.186zM17.215 24.474l0.147-0.147-0.076-0.076-0.106 0.019 0.036 0.204zM15.452 24.785l-0.036-0.205-0.014 0.004 0.050 0.201zM14.519 24.37l-0.177 0.109 0.004 0.006 0.173-0.115zM13.689 23.022l0.177-0.109-0.004-0.006-0.173 0.115zM13.793 21.985l0.147 0.147 0.006-0.007-0.153-0.14zM14.933 20.741l0.153 0.14 0.055-0.059v-0.081h-0.207zM14.933 19.911h0.207v-0.081l-0.055-0.059-0.153 0.14zM13.793 18.667l0.153-0.14-0.006-0.006-0.147 0.147zM13.689 17.63l0.173 0.115 0.004-0.006-0.177-0.109zM14.519 16.281l-0.173-0.115-0.004 0.006 0.177 0.109zM15.452 15.867l-0.066 0.197 0.014 0.005 0.015 0.003 0.036-0.204zM17.215 16.178l-0.036 0.204 0.068 0.012 0.061-0.031-0.093-0.186zM17.941 15.763l0.093 0.186 0.071-0.035 0.029-0.073-0.193-0.077zM18.563 14.207l0.193 0.077 0.004-0.012-0.197-0.066zM22.089 14.207l0.193-0.077-0.003-0.008-0.004-0.008-0.186 0.093zM22.711 15.763l-0.193 0.077 0.029 0.073 0.071 0.035 0.093-0.186zM23.437 16.178l-0.147 0.147 0.076 0.076 0.106-0.019-0.036-0.204zM25.2 15.867l0.036 0.205 0.014-0.004-0.050-0.201zM26.133 16.281l0.177-0.109-0.004-0.006-0.173 0.115zM26.963 17.63l-0.177 0.109 0.004 0.006 0.173-0.115zM26.859 18.667l-0.147-0.147-0.006 0.007 0.153 0.14zM25.719 19.911l-0.153-0.14-0.055 0.059v0.081h0.207zM25.719 20.741h-0.207v0.081l0.055 0.059 0.153-0.14zM26.859 21.985l-0.153 0.14 0.006 0.006 0.147-0.147zM26.963 23.022l0.159 0.133 0.007-0.009 0.006-0.009-0.173-0.115zM25.926 24.267l-0.159-0.133-0.007 0.009-0.006 0.009 0.173 0.115zM24.993 24.681l0.066-0.197-0.014-0.005-0.015-0.003-0.036 0.204zM23.23 24.37l0.036-0.204-0.068-0.012-0.061 0.031 0.093 0.186zM22.504 24.785l-0.093-0.186-0.071 0.035-0.029 0.073 0.193 0.077zM21.881 26.341l-0.193-0.077-0.005 0.013-0.003 0.014 0.201 0.050zM17.63 23.437l-0.147 0.147 0.015 0.015 0.017 0.011 0.115-0.173zM18.563 23.956l0.147-0.147-0.035-0.035-0.046-0.015-0.066 0.197zM18.874 24.267l0.196-0.069-0.016-0.044-0.033-0.033-0.147 0.147zM19.496 26.030l-0.196 0.069 0.057 0.16 0.168-0.024-0.029-0.205zM20.222 25.926v-0.207h-0.015l-0.015 0.002 0.029 0.205zM21.052 25.926v0.207h0.144l0.051-0.135-0.194-0.073zM21.674 24.267l0.194 0.073 0.013-0.035v-0.038h-0.207zM21.985 23.956l-0.066-0.197-0.046 0.015-0.035 0.035 0.147 0.147zM22.919 23.437l0.115 0.173 0.017-0.011 0.015-0.015-0.147-0.147zM23.333 23.333l0.032-0.205-0.016-0.002h-0.016v0.207zM25.304 23.644l-0.032 0.205 0.14 0.022 0.071-0.122-0.179-0.105zM26.030 22.4l0.179 0.105 0.077-0.133-0.104-0.113-0.152 0.141zM24.785 21.052l0.153-0.141-0.006-0.006-0.147 0.147zM24.785 19.185l0.147 0.147 0.006-0.006-0.152-0.141zM26.030 17.837l0.152 0.141 0.107-0.116-0.082-0.134-0.177 0.109zM25.2 16.489l0.177-0.109-0.077-0.126-0.144 0.032 0.045 0.202zM23.333 16.904v0.207h0.023l0.022-0.005-0.045-0.202zM22.919 16.8l0.147-0.147-0.015-0.015-0.017-0.011-0.115 0.173zM21.985 16.281l-0.147 0.147 0.035 0.035 0.046 0.015 0.066-0.197zM21.674 15.97l-0.196 0.069 0.016 0.044 0.033 0.033 0.147-0.147zM21.052 14.207l0.196-0.069-0.070-0.199-0.198 0.074 0.073 0.194zM20.222 14.519v0.207h0.038l0.035-0.013-0.073-0.194zM19.393 14.519v-0.207h-0.144l-0.051 0.135 0.194 0.073zM18.77 16.178l-0.194-0.073-0.013 0.035v0.038h0.207zM18.459 16.489l0.066 0.197 0.046-0.015 0.035-0.035-0.147-0.147zM17.526 17.007l-0.115-0.173-0.017 0.011-0.015 0.015 0.147 0.147zM17.111 17.111l-0.032 0.205 0.016 0.002h0.016v-0.207zM15.141 16.8l0.032-0.205-0.144-0.023-0.070 0.128 0.182 0.099zM14.519 17.941l-0.182-0.099-0.071 0.131 0.101 0.109 0.152-0.141zM15.763 19.289l-0.153 0.141 0.006 0.006 0.147-0.147zM15.763 21.156l-0.147-0.147-0.006 0.006 0.152 0.141zM14.519 22.504l-0.152-0.141-0.107 0.116 0.082 0.134 0.177-0.109zM15.348 23.852l-0.177 0.109 0.081 0.131 0.149-0.039-0.053-0.201zM12.444 22.815v0.207h0.207v-0.207h-0.207zM6.637 14.726l-0.066-0.197-0.007 0.003 0.073 0.194zM7.467 14.415l0.066 0.197 0.009-0.003-0.074-0.194zM7.985 10.889l-0.154 0.139 0.009 0.010 0.010 0.009 0.135-0.157zM15.659 13.793l0.147 0.147 0.147-0.147-0.147-0.147-0.147 0.147zM14.933 14.519l-0.147 0.147 0.147 0.147 0.147-0.147-0.147-0.147zM7.778 15.348l-0.077-0.193-0.008 0.003-0.008 0.004 0.093 0.186zM7.052 15.659l0.073 0.194 0.010-0.004 0.010-0.005-0.093-0.186zM12.444 21.778h0.207v-0.207h-0.207v0.207zM21.052 26.756h-1.659v0.415h1.659v-0.415zM19.393 26.756c-0.325 0-0.57-0.153-0.748-0.508l-0.371 0.185c0.237 0.475 0.615 0.737 1.119 0.737v-0.415zM18.655 26.271l-0.519-1.452-0.391 0.14 0.519 1.452 0.391-0.14zM18.033 24.703c-0.111-0.055-0.241-0.107-0.363-0.169s-0.224-0.121-0.309-0.207l-0.293 0.293c0.123 0.121 0.28 0.217 0.417 0.285s0.267 0.12 0.363 0.169l0.185-0.371zM17.179 24.27l-1.763 0.311 0.072 0.409 1.763-0.311-0.072-0.409zM15.402 24.584c-0.301 0.075-0.533-0.062-0.71-0.329l-0.345 0.23c0.237 0.356 0.627 0.633 1.156 0.501l-0.101-0.402zM14.695 24.262l-0.83-1.348-0.353 0.217 0.83 1.348 0.353-0.217zM13.861 22.907c-0.158-0.237-0.157-0.541 0.078-0.775l-0.293-0.293c-0.388 0.388-0.386 0.914-0.13 1.299l0.345-0.23zM13.945 22.125l1.141-1.244-0.306-0.28-1.141 1.244 0.306 0.28zM15.141 20.741c0-0.104 0-0.207 0-0.415h-0.415c0 0.207 0 0.311 0 0.415h0.415zM15.141 20.326c0-0.104 0-0.207 0-0.415h-0.415c0 0.207 0 0.311 0 0.415h0.415zM15.086 19.771l-1.141-1.244-0.306 0.28 1.141 1.244 0.306-0.28zM13.939 18.52c-0.234-0.234-0.236-0.538-0.078-0.775l-0.345-0.23c-0.257 0.385-0.258 0.911 0.13 1.299l0.293-0.293zM13.865 17.738l0.83-1.348-0.353-0.217-0.83 1.348 0.353 0.217zM14.691 16.396c0.085-0.132 0.197-0.225 0.342-0.29 0.137-0.063 0.263-0.074 0.353-0.043l0.131-0.393c-0.221-0.074-0.458-0.032-0.658 0.060-0.192 0.091-0.391 0.257-0.513 0.436l0.345 0.23zM15.416 16.071l1.763 0.311 0.072-0.409-1.763-0.311-0.072 0.409zM17.308 16.363c0.219-0.11 0.53-0.317 0.726-0.415l-0.185-0.371c-0.219 0.11-0.53 0.317-0.726 0.415l0.185 0.371zM18.133 15.84l0.622-1.556-0.385-0.154-0.622 1.556 0.385 0.154zM18.76 14.273c0.034-0.101 0.128-0.224 0.271-0.323 0.147-0.103 0.295-0.161 0.465-0.158v-0.415c-0.244 0.003-0.511 0.101-0.701 0.231-0.194 0.134-0.359 0.323-0.429 0.533l0.393 0.131zM19.496 13.793h1.659v-0.415h-1.659v0.415zM21.156 13.793c0.325 0 0.57 0.153 0.748 0.508l0.371-0.185c-0.237-0.475-0.615-0.737-1.119-0.737v0.415zM21.896 14.284l0.622 1.556 0.385-0.154-0.622-1.556-0.385 0.154zM22.618 15.948c0.111 0.055 0.241 0.107 0.363 0.169s0.224 0.121 0.309 0.207l0.293-0.293c-0.123-0.121-0.28-0.217-0.417-0.285s-0.267-0.12-0.363-0.169l-0.185 0.371zM23.473 16.382l1.763-0.311-0.072-0.409-1.763 0.311 0.072 0.409zM25.25 16.068c0.301-0.075 0.533 0.062 0.71 0.329l0.345-0.23c-0.237-0.356-0.627-0.633-1.156-0.501l0.101 0.402zM25.957 16.39l0.83 1.348 0.353-0.217-0.83-1.348-0.353 0.217zM26.79 17.745c0.158 0.237 0.157 0.541-0.078 0.775l0.293 0.293c0.388-0.388 0.386-0.914 0.13-1.299l-0.345 0.23zM26.706 18.527l-1.141 1.244 0.306 0.28 1.141-1.244-0.306-0.28zM25.511 19.911c0 0.104 0 0.207 0 0.415h0.415c0-0.207 0-0.311 0-0.415h-0.415zM25.511 20.326c0 0.104 0 0.156 0 0.207s0 0.104 0 0.207h0.415c0-0.104 0-0.156 0-0.207s0-0.104 0-0.207h-0.415zM25.566 20.881l1.141 1.244 0.306-0.28-1.141-1.244-0.306 0.28zM26.713 22.132c0.234 0.234 0.236 0.538 0.078 0.775l0.345 0.23c0.257-0.385 0.258-0.911-0.13-1.299l-0.293 0.293zM26.804 22.889l-1.037 1.244 0.319 0.265 1.037-1.244-0.319-0.265zM25.753 24.152c-0.085 0.132-0.197 0.225-0.342 0.29-0.137 0.063-0.263 0.074-0.353 0.043l-0.131 0.393c0.221 0.074 0.458 0.032 0.658-0.060 0.192-0.091 0.391-0.257 0.513-0.436l-0.345-0.23zM25.029 24.477l-1.763-0.311-0.072 0.409 1.763 0.311 0.072-0.409zM23.137 24.185c-0.219 0.11-0.53 0.317-0.726 0.415l0.185 0.371c0.219-0.11 0.53-0.317 0.726-0.415l-0.185-0.371zM22.311 24.708l-0.622 1.556 0.385 0.154 0.622-1.556-0.385-0.154zM21.68 26.29c-0.042 0.166-0.12 0.278-0.219 0.349-0.111 0.085-0.231 0.118-0.41 0.116v0.415c0.236-0.002 0.48-0.073 0.653-0.195 0.187-0.136 0.315-0.335 0.377-0.584l-0.402-0.101zM17.319 23.541c0.056 0 0.082 0.001 0.105 0.007 0.016 0.004 0.035 0.012 0.059 0.036l0.293-0.293c-0.168-0.168-0.351-0.164-0.458-0.164v0.415zM17.515 23.61c0.311 0.207 0.646 0.429 0.983 0.543l0.131-0.393c-0.285-0.093-0.573-0.287-0.884-0.494l-0.23 0.345zM18.416 24.102c0.104 0.104 0.207 0.207 0.311 0.311l0.293-0.293c-0.104-0.104-0.207-0.207-0.311-0.311l-0.293 0.293zM18.678 24.336l0.622 1.763 0.391-0.138-0.622-1.763-0.391 0.138zM19.526 26.235l0.726-0.104-0.059-0.411-0.726 0.104 0.059 0.411zM20.222 26.133h0.83v-0.415h-0.83v0.415zM21.246 25.999l0.622-1.659-0.388-0.146-0.622 1.659 0.388 0.146zM21.881 24.267c0 0.043-0.021 0.063-0.012 0.053 0.010-0.013 0.023-0.024 0.051-0.047s0.062-0.047 0.098-0.075c0.036-0.027 0.079-0.062 0.113-0.096l-0.293-0.293c-0.037 0.038-0.105 0.083-0.177 0.14-0.037 0.029-0.082 0.070-0.114 0.109-0.034 0.041-0.080 0.113-0.080 0.209h0.415zM22.051 24.152c0.337-0.114 0.672-0.335 0.983-0.543l-0.23-0.345c-0.311 0.207-0.598 0.401-0.884 0.494l0.131 0.393zM23.065 23.584c0.026-0.030 0.024-0.028 0.063-0.034 0.040-0.008 0.094-0.009 0.206-0.009v-0.415c-0.191 0-0.388-0.010-0.561 0.164l0.293 0.293zM23.301 23.538l1.97 0.311 0.065-0.41-1.97-0.311-0.065 0.41zM25.483 23.749l0.726-1.244-0.358-0.209-0.726 1.244 0.358 0.209zM26.182 22.259l-1.244-1.348-0.305 0.281 1.244 1.348 0.305-0.281zM24.932 20.905c-0.006-0.006-0.022-0.032-0.033-0.095-0.011-0.061-0.010-0.121-0.010-0.173h-0.415c0 0.052 0.001 0.147 0.016 0.242 0.015 0.092 0.051 0.222 0.149 0.32l0.293-0.293zM24.889 20.637c0-0.207 0-0.311 0-0.519h-0.415c0 0.207 0 0.311 0 0.519h0.415zM24.889 20.119c0-0.207 0-0.311 0-0.519h-0.415c0 0.207 0 0.311 0 0.519h0.415zM24.889 19.6c0-0.052-0.001-0.113 0.010-0.173 0.011-0.063 0.027-0.089 0.033-0.095l-0.293-0.293c-0.098 0.098-0.133 0.228-0.149 0.32-0.015 0.095-0.016 0.19-0.016 0.242h0.415zM24.938 19.326l1.244-1.348-0.305-0.281-1.244 1.348 0.305 0.281zM26.206 17.728l-0.83-1.348-0.353 0.217 0.83 1.348 0.353-0.217zM25.155 16.286l-1.867 0.415 0.090 0.405 1.867-0.415-0.090-0.405zM23.333 16.696c-0.052 0-0.113 0.001-0.173-0.010-0.063-0.011-0.089-0.027-0.095-0.033l-0.293 0.293c0.098 0.098 0.228 0.133 0.32 0.149 0.095 0.015 0.19 0.016 0.242 0.016v-0.415zM23.034 16.627c-0.311-0.207-0.646-0.429-0.983-0.543l-0.131 0.393c0.285 0.093 0.573 0.287 0.884 0.494l0.23-0.345zM22.132 16.135c-0.104-0.104-0.207-0.207-0.311-0.311l-0.293 0.293c0.104 0.104 0.207 0.207 0.311 0.311l0.293-0.293zM21.87 15.901l-0.622-1.763-0.391 0.138 0.622 1.763 0.391-0.138zM20.979 14.013l-0.83 0.311 0.146 0.388 0.83-0.311-0.146-0.388zM20.222 14.311h-0.83v0.415h0.83v-0.415zM19.198 14.446l-0.622 1.659 0.388 0.146 0.622-1.659-0.388-0.146zM18.563 16.178c0-0.043 0.021-0.063 0.012-0.053-0.010 0.013-0.023 0.024-0.051 0.047s-0.062 0.047-0.098 0.075c-0.036 0.027-0.079 0.062-0.113 0.096l0.293 0.293c0.037-0.038 0.105-0.083 0.177-0.14 0.037-0.029 0.082-0.070 0.114-0.109 0.034-0.041 0.080-0.113 0.080-0.209h-0.415zM18.394 16.292c-0.337 0.114-0.672 0.335-0.983 0.543l0.23 0.345c0.311-0.207 0.598-0.401 0.884-0.494l-0.131-0.393zM17.379 16.861c-0.026 0.030-0.024 0.028-0.063 0.034-0.040 0.008-0.094 0.009-0.206 0.009v0.415c0.191 0 0.388 0.010 0.561-0.164l-0.293-0.293zM17.143 16.906l-1.97-0.311-0.065 0.41 1.97 0.311 0.065-0.41zM14.959 16.701l-0.622 1.141 0.364 0.199 0.622-1.141-0.364-0.199zM14.366 18.081l1.244 1.348 0.305-0.281-1.244-1.348-0.305 0.281zM15.616 19.436c0.006 0.006 0.022 0.032 0.033 0.095 0.011 0.061 0.010 0.121 0.010 0.173h0.415c0-0.052-0.001-0.147-0.016-0.242-0.015-0.092-0.051-0.222-0.149-0.32l-0.293 0.293zM15.659 19.704c0 0.207 0 0.311 0 0.519h0.415c0-0.207 0-0.311 0-0.519h-0.415zM15.659 20.222c0 0.207 0 0.311 0 0.519h0.415c0-0.207 0-0.311 0-0.519h-0.415zM15.659 20.741c0 0.052 0.001 0.113-0.010 0.173-0.011 0.063-0.027 0.089-0.033 0.095l0.293 0.293c0.098-0.098 0.133-0.228 0.149-0.32 0.015-0.095 0.016-0.19 0.016-0.242h-0.415zM15.611 21.015l-1.244 1.348 0.305 0.281 1.244-1.348-0.305-0.281zM14.342 22.612l0.83 1.348 0.353-0.217-0.83-1.348-0.353 0.217zM15.401 24.052l1.97-0.519-0.106-0.401-1.97 0.519 0.106 0.401zM17.319 23.126c-0.026 0-0.045 0-0.058 0-0.007 0-0.011 0-0.015 0-0.002 0-0.003 0-0.004 0s-0.001 0-0.001 0-0 0-0 0-0 0-0 0 0 0 0 0 0 0 0 0 0 0 0 0.207 0 0.207 0 0.207 0 0 0 0 0 0 0 0 0 0 0 0 0 0 0 0 0.001 0 0.001 0 0.002 0 0.004 0 0.008 0 0.015 0c0.013 0 0.032 0 0.058 0v-0.415c-0.026 0-0.045 0-0.058 0-0.007 0-0.011 0-0.015 0-0.002 0-0.003 0-0.004 0s-0.001 0-0.001 0-0 0-0 0-0 0-0 0 0 0 0 0 0 0 0 0 0 0 0 0.207 0 0.207 0 0.207 0 0 0 0 0 0 0 0 0 0 0 0 0 0 0 0 0.001 0 0.001 0 0.002 0 0.004 0 0.008 0 0.015 0c0.013 0 0.032 0 0.058 0v-0.415zM20.222 22.607c-1.337 0-2.385-1.048-2.385-2.385h-0.415c0 1.566 1.234 2.8 2.8 2.8v-0.415zM17.837 20.222c0-1.337 1.048-2.385 2.385-2.385v-0.415c-1.566 0-2.8 1.234-2.8 2.8h0.415zM20.222 17.837c1.337 0 2.385 1.048 2.385 2.385h0.415c0-1.566-1.234-2.8-2.8-2.8v0.415zM22.607 20.222c0 1.337-1.048 2.385-2.385 2.385v0.415c1.566 0 2.8-1.234 2.8-2.8h-0.415zM20.222 18.459c-0.944 0-1.763 0.819-1.763 1.763h0.415c0-0.715 0.633-1.348 1.348-1.348v-0.415zM18.459 20.222c0 0.944 0.819 1.763 1.763 1.763v-0.415c-0.715 0-1.348-0.633-1.348-1.348h-0.415zM20.222 21.985c0.944 0 1.763-0.819 1.763-1.763h-0.415c0 0.715-0.633 1.348-1.348 1.348v0.415zM21.985 20.222c0-0.944-0.819-1.763-1.763-1.763v0.415c0.715 0 1.348 0.633 1.348 1.348h0.415zM12.444 22.607h-9.852v0.415h9.852v-0.415zM2.593 22.607c-0.409 0-0.74-0.157-0.972-0.422-0.233-0.267-0.376-0.656-0.376-1.134h-0.415c0 0.559 0.168 1.051 0.479 1.407 0.313 0.358 0.76 0.563 1.284 0.563v-0.415zM1.244 21.052v-0.311h-0.415v0.311h0.415zM1.244 20.741c0-1.851 0.746-3.065 1.792-3.937 1.061-0.888 2.43-1.417 3.673-1.884l-0.146-0.388c-1.246 0.467-2.677 1.027-3.793 1.953-1.131 0.943-1.941 2.27-1.941 4.256h0.415zM6.703 14.923c0.325-0.109 0.532-0.212 0.83-0.311l-0.131-0.393c-0.325 0.109-0.532 0.212-0.83 0.311l0.131 0.393zM7.541 14.608c0.69-0.265 1.078-0.546 1.282-0.875s0.2-0.675 0.2-0.978h-0.415c0 0.319-0.005 0.545-0.137 0.759s-0.419 0.453-1.078 0.706l0.149 0.387zM9.022 12.756c-0-0.372-0.031-0.721-0.157-1.048-0.128-0.322-0.365-0.648-0.745-0.976l-0.27 0.315c0.346 0.294 0.523 0.538 0.629 0.813 0.108 0.269 0.129 0.542 0.128 0.897h0.415zM8.139 10.75c-0.921-1.023-1.71-2.012-1.71-4.009h-0.415c0 2.15 0.87 3.236 1.816 4.287l0.308-0.277zM6.43 6.741c0-1.72 0.53-3.089 1.469-4.027s2.308-1.469 4.027-1.469v-0.415c-1.806 0-3.289 0.559-4.321 1.59s-1.59 2.515-1.59 4.321h0.415zM11.926 1.244c1.72 0 3.089 0.53 4.027 1.469s1.469 2.308 1.469 4.027h0.415c0-1.806-0.559-3.289-1.59-4.321s-2.515-1.59-4.321-1.59v0.415zM17.422 6.741c0 1.998-0.789 2.985-1.702 3.898l0.293 0.293c0.954-0.954 1.824-2.041 1.824-4.191h-0.415zM15.72 10.639c-0.675 0.675-0.787 1.359-0.787 2.013h0.415c0-0.59 0.096-1.15 0.665-1.72l-0.293-0.293zM14.933 12.652c0 0.362 0.123 0.831 0.579 1.287l0.293-0.293c-0.373-0.373-0.458-0.734-0.458-0.994h-0.415zM15.513 13.646l-0.726 0.726 0.293 0.293 0.726-0.726-0.293-0.293zM15.080 14.372c-0.678-0.678-0.769-1.345-0.769-1.72h-0.415c0 0.455 0.116 1.239 0.89 2.013l0.293-0.293zM14.311 12.652c0-0.798 0.096-1.565 0.976-2.446l-0.293-0.293c-0.986 0.986-1.098 1.878-1.098 2.739h0.415zM15.287 10.206c0.469-0.469 0.853-0.884 1.115-1.402 0.265-0.53 0.398-1.161 0.398-2.063h-0.415c0 0.861-0.127 1.423-0.354 1.878-0.231 0.467-0.573 0.83-1.037 1.294l0.293 0.293zM16.8 6.741c0-1.541-0.426-2.767-1.266-3.608s-2.067-1.266-3.608-1.266v0.415c1.467 0 2.574 0.404 3.314 1.145s1.145 1.848 1.145 3.314h0.415zM11.926 1.867c-1.541 0-2.767 0.426-3.608 1.266s-1.266 2.067-1.266 3.608h0.415c0-1.467 0.404-2.574 1.145-3.314s1.848-1.145 3.314-1.145v-0.415zM7.052 6.741c0.002 0.907 0.169 1.577 0.438 2.104 0.274 0.53 0.658 0.944 1.075 1.361l0.293-0.293c-0.412-0.412-0.755-0.776-0.999-1.257-0.25-0.484-0.394-1.058-0.392-1.915h-0.415zM8.564 10.206c0.891 0.891 1.080 1.666 1.080 2.446h0.415c0-0.879-0.226-1.763-1.201-2.739l-0.293 0.293zM9.644 12.652c0 0.415 0.007 0.829-0.233 1.247-0.228 0.411-0.7 0.852-1.711 1.256l0.154 0.385c1.063-0.425 1.629-0.917 1.919-1.44 0.279-0.515 0.285-1.034 0.285-1.449h-0.415zM7.685 15.163c-0.194 0.098-0.505 0.201-0.726 0.311l0.185 0.371c0.194-0.098 0.505-0.201 0.726-0.311l-0.186-0.371zM6.979 15.465c-1.246 0.467-2.521 0.975-3.481 1.758-0.977 0.801-1.632 1.895-1.632 3.518h0.415c0-1.488 0.59-2.468 1.48-3.197 0.907-0.746 2.121-1.224 3.364-1.69l-0.146-0.388zM1.867 20.741v0.311h0.415v-0.311h-0.415zM1.867 21.052c0.001 0.118 0.035 0.347 0.126 0.533 0.098 0.195 0.285 0.4 0.6 0.4v-0.415c-0.1 0-0.171-0.055-0.229-0.17-0.065-0.125-0.082-0.259-0.082-0.348h-0.415zM2.593 21.985h9.852v-0.415h-9.852v0.415zM12.237 21.778v1.037h0.415v-1.037h-0.415z"></path>
</svg>
