<!-- Generated by IcoMoon.io -->
<svg version="1.1" xmlns="http://www.w3.org/2000/svg" width="28" height="28" viewBox="0 0 28 28">
<title>icon-radio</title>
<path fill="#cfcfcf" d="M24.706 14c0 5.913-4.793 10.706-10.706 10.706v3.294c7.732 0 14-6.268 14-14h-3.294zM14 24.706c-5.913 0-10.706-4.793-10.706-10.706h-3.294c0 7.732 6.268 14 14 14v-3.294zM3.294 14c0-5.913 4.793-10.706 10.706-10.706v-3.294c-7.732 0-14 6.268-14 14h3.294zM14 3.294c5.913 0 10.706 4.793 10.706 10.706h3.294c0-7.732-6.268-14-14-14v3.294z"></path>
<path fill="#e55570" d="M20.588 14c0 3.639-2.95 6.588-6.588 6.588s-6.588-2.95-6.588-6.588c0-3.639 2.95-6.588 6.588-6.588s6.588 2.95 6.588 6.588z"></path>
</svg>
