<!-- Generated by IcoMoon.io -->
<svg version="1.1" xmlns="http://www.w3.org/2000/svg" width="28" height="28" viewBox="0 0 28 28">
<title>icon-thumbs</title>
<path fill="#e55570" d="M26.963 14.564c0-1.24-1.015-2.254-2.254-2.254h-6.989c-0.113 0-0.225-0.113-0.225-0.113s-0.113-0.113 0-0.225c0.902-1.578 1.465-4.171 1.916-5.974l0.113-0.676c0.225-0.902 0-1.916-0.564-2.705s-1.465-1.24-2.367-1.353l-2.029-0.225v0.451c0 0-0.564 4.283-2.593 6.989-1.015 1.353-3.043 3.043-4.171 4.058-0.113-0.789-0.676-1.353-1.353-1.353h-4.058c-0.676 0-1.353 0.676-1.353 1.353v12.963c0 0.789 0.676 1.465 1.353 1.465h3.945c0.789 0 1.465-0.676 1.465-1.353v-0.225c1.014 0.676 2.931 1.578 5.523 1.578h8.003c1.24 0 2.254-1.015 2.254-2.254 0-0.451-0.113-0.902-0.338-1.24 0.902-0.338 1.465-1.127 1.465-2.142 0-0.451-0.113-0.902-0.338-1.24 0.902-0.338 1.465-1.127 1.465-2.142 0-0.451-0.113-0.902-0.338-1.24 0.789-0.338 1.465-1.127 1.465-2.142zM6.673 25.61c0 0.113-0.113 0.225-0.225 0.225h-4.058c-0.113 0-0.225-0.113-0.225-0.225v-13.076c0-0.113 0.113-0.225 0.225-0.225h3.945c0.225 0 0.338 0.113 0.338 0.225v13.076zM24.709 15.691h-1.691v1.127h0.564c0.676 0 1.127 0.451 1.127 1.127s-0.451 1.127-1.127 1.127h-1.691v1.127h0.564c0.676 0 1.127 0.451 1.127 1.127s-0.451 1.127-1.127 1.127h-1.691v1.127h0.564c0.676 0 1.127 0.451 1.127 1.127s-0.451 1.127-1.127 1.127h-8.003c-3.043 0-4.96-1.465-5.523-1.916v-10.032c0.676-0.564 3.607-2.931 5.072-4.734 1.804-2.254 2.48-5.636 2.705-6.989l0.902 0.113c0.676 0.113 1.24 0.451 1.578 0.902 0.338 0.564 0.564 1.24 0.338 1.804l-0.113 0.676c-0.338 1.691-0.902 4.171-1.804 5.636-0.225 0.451-0.225 1.015 0 1.353 0.225 0.451 0.676 0.676 1.24 0.676h6.989c0.676 0 1.127 0.564 1.127 1.127s-0.564 1.24-1.127 1.24z"></path>
<path fill="#e55570" d="M17.494 12.196v0zM17.494 11.971l0.147 0.147 0.020-0.020 0.014-0.024-0.18-0.103zM19.411 5.997l0.201 0.050 0.002-0.008 0.001-0.008-0.205-0.034zM19.523 5.32l-0.201-0.050-0.002 0.008-0.001 0.008 0.205 0.034zM16.593 1.262l0.026-0.206-0.003-0-0.023 0.206zM14.564 1.037l0.023-0.206-0.23-0.026v0.232h0.207zM14.564 1.488l0.206 0.027 0.002-0.013v-0.014h-0.207zM7.8 12.535l-0.205 0.029 0.055 0.385 0.289-0.26-0.139-0.154zM7.8 25.385l0.115-0.173-0.322-0.215v0.388h0.207zM23.243 23.469l-0.073-0.194-0.245 0.092 0.145 0.217 0.173-0.115zM24.37 20.087l-0.073-0.194-0.245 0.092 0.145 0.217 0.173-0.115zM25.498 16.705l-0.082-0.191-0.229 0.098 0.138 0.207 0.173-0.115zM23.018 15.691v-0.207h-0.207v0.207h0.207zM23.018 16.818h-0.207v0.207h0.207v-0.207zM21.891 19.072v-0.207h-0.207v0.207h0.207zM21.891 20.2h-0.207v0.207h0.207v-0.207zM20.763 22.454v-0.207h-0.207v0.207h0.207zM20.763 23.581h-0.207v0.207h0.207v-0.207zM7.8 23.919h-0.207v0.1l0.078 0.062 0.13-0.162zM7.8 13.887l-0.133-0.159-0.075 0.062v0.097h0.207zM12.873 9.153l0.161 0.131 0.001-0.001-0.162-0.13zM15.578 2.164l0.026-0.206-0.198-0.025-0.033 0.196 0.205 0.034zM16.48 2.277l0.034-0.205-0.008-0.001-0.026 0.206zM18.058 3.179l0.178-0.107-0.005-0.009-0.006-0.009-0.166 0.124zM18.396 4.982l-0.193-0.077-0.008 0.021-0.004 0.022 0.205 0.034zM18.283 5.659l0.204 0.041 0.001-0.007-0.205-0.034zM16.48 11.295l-0.177-0.109-0.005 0.008-0.004 0.008 0.186 0.093zM16.48 12.647l0.186-0.093-0.006-0.012-0.007-0.011-0.173 0.115zM27.17 14.564c0-1.354-1.107-2.462-2.462-2.462v0.415c1.125 0 2.047 0.922 2.047 2.047h0.415zM24.709 12.102h-6.989v0.415h6.989v-0.415zM17.72 12.102c0.009-0.006-0.009-0-0.040-0.022-0.014-0.009-0.021-0.015-0.031-0.024-0.004-0.003-0.005-0.005-0.008-0.007-0.001-0.001-0.001-0.001-0.001-0.001s0 0 0 0 0 0 0 0 0 0 0 0 0 0 0 0 0 0 0 0 0 0-0.147 0.147-0.147 0.147-0.147 0.147 0 0 0 0 0 0 0 0 0 0 0 0 0.001 0.001 0.001 0.001 0.001 0.001 0.002 0.002 0.004 0.004 0.007 0.006 0.012 0.011 0.021 0.019c0.015 0.013 0.043 0.035 0.071 0.054 0.053 0.035 0.151 0.091 0.27 0.091v-0.415zM17.494 12.196c0.147-0.147 0.147-0.147 0.147-0.147s0 0 0 0 0 0 0 0 0.001 0.001 0.001 0.001 0.001 0.001 0.001 0.001 0.002 0.002 0.002 0.002c0-0 0.002 0.002 0.002 0.002 0.001 0.001 0.001 0.002 0.001 0.001-0.004-0.005 0.003 0.004 0.002 0.004 0.002 0.005 0.005 0.018 0.001 0.034-0.004 0.018-0.012 0.026-0.009 0.023l-0.293-0.293c-0.12 0.12-0.128 0.261-0.092 0.367 0.015 0.042 0.041 0.087 0.054 0.106 0.009 0.012 0.019 0.024 0.023 0.030 0.003 0.004 0.007 0.008 0.009 0.010s0.003 0.003 0.003 0.004c0.001 0.001 0.001 0.001 0.001 0.001s0.001 0.001 0.001 0.001 0 0 0 0 0 0 0 0 0 0 0.147-0.147zM17.674 12.074c0.92-1.61 1.491-4.242 1.937-6.027l-0.402-0.101c-0.456 1.822-1.012 4.375-1.895 5.922l0.36 0.206zM19.615 6.031l0.113-0.676-0.409-0.068-0.113 0.676 0.409 0.068zM19.725 5.371c0.242-0.967-0.001-2.043-0.596-2.876l-0.338 0.241c0.532 0.745 0.74 1.698 0.531 2.534l0.402 0.101zM19.129 2.495c-0.603-0.844-1.561-1.319-2.51-1.438l-0.051 0.412c0.855 0.107 1.7 0.533 2.224 1.267l0.338-0.241zM16.616 1.056l-2.029-0.225-0.046 0.412 2.029 0.225 0.046-0.412zM14.356 1.037v0.451h0.415v-0.451h-0.415zM14.564 1.488c-0.206-0.027-0.206-0.027-0.206-0.027s0 0 0 0 0 0-0 0-0 0.001-0 0.002-0.001 0.005-0.001 0.009c-0.001 0.008-0.003 0.019-0.005 0.035-0.004 0.032-0.011 0.078-0.021 0.138-0.019 0.121-0.049 0.296-0.091 0.516-0.084 0.441-0.216 1.053-0.412 1.751-0.392 1.401-1.025 3.113-2.023 4.44l0.332 0.249c1.031-1.378 1.694-3.16 2.091-4.577 0.199-0.711 0.335-1.339 0.42-1.785 0.043-0.224 0.073-0.405 0.093-0.529 0.010-0.062 0.017-0.111 0.022-0.143 0.002-0.016 0.004-0.029 0.005-0.038 0.001-0.004 0.001-0.008 0.001-0.010 0-0.001 0-0.002 0-0.003s0-0.001 0-0.001 0-0 0-0 0-0-0.206-0.027zM11.805 8.352c-0.999 1.331-3.002 3.001-4.144 4.028l0.277 0.308c1.113-1.002 3.167-2.714 4.198-4.088l-0.332-0.249zM8.006 12.505c-0.124-0.864-0.754-1.531-1.558-1.531v0.415c0.548 0 1.045 0.461 1.147 1.175l0.411-0.059zM6.448 10.975h-4.058v0.415h4.058v-0.415zM2.39 10.975c-0.406 0-0.794 0.201-1.077 0.483s-0.483 0.671-0.483 1.077h0.415c0-0.271 0.137-0.559 0.362-0.783s0.513-0.362 0.783-0.362v-0.415zM0.83 12.535v12.963h0.415v-12.963h-0.415zM0.83 25.498c0 0.893 0.759 1.673 1.56 1.673v-0.415c-0.551 0-1.145-0.573-1.145-1.258h-0.415zM2.39 27.17h3.945v-0.415h-3.945v0.415zM6.335 27.17c0.893 0 1.673-0.759 1.673-1.56h-0.415c0 0.551-0.573 1.145-1.258 1.145v0.415zM8.008 25.61v-0.225h-0.415v0.225h0.415zM7.685 25.557c1.042 0.694 2.997 1.613 5.638 1.613v-0.415c-2.544 0-4.421-0.885-5.408-1.543l-0.23 0.345zM13.324 27.17h8.003v-0.415h-8.003v0.415zM21.327 27.17c1.354 0 2.462-1.107 2.462-2.462h-0.415c0 1.125-0.922 2.047-2.047 2.047v0.415zM23.789 24.709c0-0.482-0.12-0.975-0.373-1.355l-0.345 0.23c0.198 0.296 0.303 0.705 0.303 1.125h0.415zM23.316 23.663c0.983-0.369 1.6-1.235 1.6-2.336h-0.415c0 0.928-0.51 1.64-1.331 1.948l0.146 0.388zM24.916 21.327c0-0.482-0.12-0.975-0.373-1.355l-0.345 0.23c0.198 0.296 0.303 0.705 0.303 1.125h0.415zM24.443 20.281c0.983-0.369 1.6-1.235 1.6-2.336h-0.415c0 0.928-0.51 1.64-1.331 1.948l0.146 0.388zM26.043 17.945c0-0.482-0.12-0.975-0.373-1.355l-0.345 0.23c0.198 0.297 0.303 0.705 0.303 1.125h0.415zM25.579 16.896c0.85-0.364 1.591-1.219 1.591-2.332h-0.415c0 0.916-0.612 1.639-1.34 1.951l0.163 0.381zM6.466 25.61c0-0.006 0.002-0.008 0-0.005s-0.005 0.008-0.010 0.013-0.010 0.008-0.013 0.010c-0.003 0.001-0.001-0 0.005-0v0.415c0.124 0 0.23-0.060 0.302-0.131s0.131-0.178 0.131-0.302h-0.415zM6.448 25.628h-4.058v0.415h4.058v-0.415zM2.39 25.628c0.006 0 0.008 0.002 0.005 0s-0.008-0.005-0.013-0.010c-0.005-0.005-0.008-0.010-0.010-0.013s0-0.001 0 0.005h-0.415c0 0.124 0.060 0.23 0.131 0.302s0.178 0.131 0.302 0.131v-0.415zM2.372 25.61v-13.076h-0.415v13.076h0.415zM2.372 12.535c0 0.006-0.002 0.008-0 0.005s0.005-0.008 0.010-0.013 0.010-0.008 0.013-0.010c0.003-0.001 0.001 0-0.005 0v-0.415c-0.124 0-0.23 0.060-0.302 0.131s-0.131 0.178-0.131 0.302h0.415zM2.39 12.517h3.945v-0.415h-3.945v0.415zM6.335 12.517c0.080 0 0.117 0.020 0.129 0.029 0.011 0.008 0.002 0.006 0.002-0.011h0.415c0-0.279-0.265-0.433-0.546-0.433v0.415zM6.466 12.535v13.076h0.415v-13.076h-0.415zM24.709 15.483h-1.691v0.415h1.691v-0.415zM22.81 15.691v1.127h0.415v-1.127h-0.415zM23.018 17.025h0.564v-0.415h-0.564v0.415zM23.581 17.025c0.291 0 0.517 0.096 0.671 0.249s0.249 0.38 0.249 0.671h0.415c0-0.385-0.129-0.722-0.371-0.964s-0.579-0.371-0.964-0.371v0.415zM24.501 17.945c0 0.291-0.096 0.517-0.249 0.671s-0.38 0.249-0.671 0.249v0.415c0.385 0 0.723-0.129 0.964-0.371s0.371-0.579 0.371-0.964h-0.415zM23.581 18.865h-1.691v0.415h1.691v-0.415zM21.683 19.072v1.127h0.415v-1.127h-0.415zM21.891 20.407h0.564v-0.415h-0.564v0.415zM22.454 20.407c0.291 0 0.517 0.096 0.671 0.249s0.249 0.38 0.249 0.671h0.415c0-0.385-0.129-0.723-0.371-0.964s-0.579-0.371-0.964-0.371v0.415zM23.374 21.327c0 0.291-0.096 0.517-0.249 0.671s-0.38 0.249-0.671 0.249v0.415c0.385 0 0.723-0.129 0.964-0.371s0.371-0.579 0.371-0.964h-0.415zM22.454 22.247h-1.691v0.415h1.691v-0.415zM20.556 22.454v1.127h0.415v-1.127h-0.415zM20.763 23.789h0.564v-0.415h-0.564v0.415zM21.327 23.789c0.291 0 0.517 0.096 0.671 0.249s0.249 0.38 0.249 0.671h0.415c0-0.385-0.129-0.723-0.371-0.964s-0.579-0.371-0.964-0.371v0.415zM22.247 24.709c0 0.291-0.096 0.517-0.249 0.671s-0.379 0.249-0.671 0.249v0.415c0.385 0 0.723-0.129 0.964-0.371s0.371-0.579 0.371-0.964h-0.415zM21.327 25.628h-8.003v0.415h8.003v-0.415zM13.324 25.628c-2.974 0-4.844-1.431-5.394-1.871l-0.259 0.324c0.577 0.462 2.54 1.962 5.653 1.962v-0.415zM8.008 23.919v-10.032h-0.415v10.032h0.415zM7.933 14.047c0.668-0.556 3.619-2.939 5.101-4.763l-0.322-0.262c-1.449 1.784-4.359 4.135-5.044 4.706l0.266 0.319zM13.035 9.283c1.841-2.301 2.523-5.732 2.748-7.084l-0.409-0.068c-0.226 1.353-0.896 4.685-2.663 6.893l0.324 0.259zM15.552 2.37l0.902 0.113 0.051-0.412-0.902-0.113-0.051 0.412zM16.446 2.482c0.63 0.105 1.144 0.418 1.446 0.822l0.332-0.249c-0.374-0.499-0.987-0.861-1.71-0.982l-0.068 0.409zM17.88 3.285c0.331 0.551 0.511 1.151 0.323 1.62l0.385 0.154c0.264-0.659-0.007-1.411-0.353-1.987l-0.356 0.213zM18.192 4.948l-0.113 0.676 0.409 0.068 0.113-0.676-0.409-0.068zM18.080 5.618c-0.34 1.698-0.898 4.14-1.777 5.568l0.353 0.217c0.925-1.502 1.494-4.020 1.83-5.704l-0.407-0.081zM16.294 11.202c-0.249 0.499-0.264 1.145 0.013 1.56l0.345-0.23c-0.174-0.261-0.189-0.742 0.013-1.145l-0.371-0.186zM16.294 12.74c0.269 0.539 0.805 0.791 1.426 0.791v-0.415c-0.507 0-0.873-0.199-1.054-0.562l-0.371 0.186zM17.72 13.531h6.989v-0.415h-6.989v0.415zM24.709 13.531c0.548 0 0.92 0.457 0.92 0.92h0.415c0-0.664-0.53-1.335-1.335-1.335v0.415zM25.628 14.451c0 0.218-0.113 0.481-0.3 0.694-0.189 0.214-0.418 0.338-0.619 0.338v0.415c0.362 0 0.696-0.213 0.93-0.479 0.235-0.267 0.404-0.623 0.404-0.968h-0.415z"></path>
</svg>
