<!-- Generated by IcoMoon.io -->
<svg version="1.1" xmlns="http://www.w3.org/2000/svg" width="28" height="28" viewBox="0 0 28 28">
<title>icon-instagram</title>
<path fill="#e55570" d="M28 14c0 7.732-6.268 14-14 14s-14-6.268-14-14c0-7.732 6.268-14 14-14s14 6.268 14 14z"></path>
<path fill="#fff" d="M14 11.345c0.492 0 0.96 0.148 1.403 0.394s0.787 0.591 1.034 1.034c0.246 0.443 0.394 0.911 0.394 1.403 0 0.517-0.148 0.984-0.394 1.427s-0.591 0.787-1.034 1.034c-0.443 0.246-0.911 0.369-1.403 0.369-0.517 0-0.984-0.123-1.427-0.369s-0.787-0.591-1.034-1.034c-0.246-0.443-0.369-0.911-0.369-1.427 0-0.492 0.123-0.96 0.369-1.403s0.591-0.788 1.034-1.034c0.443-0.246 0.911-0.394 1.427-0.394zM14 16.021c0.492 0 0.935-0.172 1.304-0.541 0.345-0.345 0.541-0.788 0.541-1.304 0-0.492-0.197-0.935-0.541-1.304-0.369-0.345-0.812-0.541-1.304-0.541-0.517 0-0.96 0.197-1.304 0.541-0.369 0.369-0.541 0.812-0.541 1.304 0 0.517 0.172 0.96 0.541 1.304 0.345 0.369 0.788 0.541 1.304 0.541zM17.618 11.222c0-0.172-0.074-0.32-0.197-0.468-0.148-0.123-0.295-0.197-0.468-0.197-0.197 0-0.345 0.074-0.468 0.197-0.148 0.148-0.197 0.295-0.197 0.468 0 0.197 0.049 0.345 0.197 0.468 0.123 0.148 0.271 0.197 0.468 0.197 0.172 0 0.32-0.049 0.443-0.197 0.123-0.123 0.197-0.271 0.221-0.468zM19.488 11.886c0 0.468 0.025 1.23 0.025 2.289 0 1.083-0.025 1.846-0.049 2.313s-0.098 0.861-0.197 1.206c-0.148 0.418-0.394 0.787-0.689 1.083s-0.665 0.517-1.058 0.664c-0.344 0.123-0.763 0.197-1.23 0.221s-1.23 0.025-2.289 0.025c-1.083 0-1.846 0-2.313-0.025s-0.861-0.098-1.206-0.246c-0.418-0.123-0.787-0.345-1.083-0.64s-0.517-0.664-0.664-1.083c-0.123-0.344-0.197-0.738-0.221-1.206s-0.025-1.23-0.025-2.313c0-1.058 0-1.821 0.025-2.289s0.098-0.886 0.221-1.23c0.148-0.394 0.369-0.763 0.664-1.058s0.664-0.541 1.083-0.689c0.345-0.098 0.738-0.172 1.206-0.197s1.23-0.049 2.313-0.049c1.058 0 1.821 0.025 2.289 0.049s0.886 0.098 1.23 0.197c0.394 0.148 0.763 0.394 1.058 0.689s0.541 0.664 0.689 1.058c0.098 0.345 0.172 0.763 0.221 1.23zM18.307 17.423c0.098-0.271 0.148-0.714 0.197-1.329 0-0.345 0.025-0.861 0.025-1.526v-0.787c0-0.664-0.025-1.181-0.025-1.526-0.049-0.615-0.098-1.058-0.197-1.329-0.197-0.492-0.566-0.861-1.058-1.058-0.271-0.098-0.714-0.148-1.329-0.197-0.369 0-0.886-0.025-1.526-0.025h-0.787c-0.664 0-1.181 0.025-1.526 0.025-0.615 0.049-1.058 0.098-1.329 0.197-0.517 0.197-0.861 0.566-1.058 1.058-0.098 0.271-0.172 0.714-0.197 1.329-0.025 0.369-0.025 0.886-0.025 1.526v0.787c0 0.664 0 1.181 0.025 1.526 0.025 0.615 0.098 1.058 0.197 1.329 0.197 0.517 0.566 0.861 1.058 1.058 0.271 0.098 0.714 0.172 1.329 0.197 0.345 0.025 0.861 0.025 1.526 0.025h0.787c0.664 0 1.181 0 1.526-0.025 0.615-0.025 1.058-0.098 1.329-0.197 0.492-0.197 0.861-0.566 1.058-1.058z"></path>
</svg>
