<!-- Generated by IcoMoon.io -->
<svg version="1.1" xmlns="http://www.w3.org/2000/svg" width="28" height="28" viewBox="0 0 28 28">
<title>icon-cross</title>
<path fill="#694343" opacity="0.3" d="M28 14c0 7.732-6.268 14-14 14s-14-6.268-14-14c0-7.732 6.268-14 14-14s14 6.268 14 14z"></path>
<path fill="#fff" d="M9.469 9.469c0.626-0.626 1.64-0.626 2.265 0l6.796 6.796c0.626 0.626 0.626 1.64 0 2.265s-1.64 0.626-2.265 0l-6.796-6.796c-0.626-0.626-0.626-1.64 0-2.265z"></path>
<path fill="#fff" d="M18.531 9.469c0.626 0.626 0.626 1.64 0 2.265l-6.796 6.796c-0.626 0.626-1.64 0.626-2.265 0s-0.626-1.64 0-2.265l6.796-6.796c0.626-0.626 1.64-0.626 2.265 0z"></path>
</svg>
