<!-- Generated by IcoMoon.io -->
<svg version="1.1" xmlns="http://www.w3.org/2000/svg" width="28" height="28" viewBox="0 0 28 28">
<title>icon-user-circle</title>
<path fill="#fff" d="M14 26.963c-7.156 0-12.963-5.807-12.963-12.963s5.807-12.963 12.963-12.963c7.156 0 12.963 5.807 12.963 12.963s-5.807 12.963-12.963 12.963zM6.015 22.815c2.074 1.97 4.978 3.111 7.985 3.111s5.911-1.141 7.985-3.111c-0.726-1.659-2.8-2.489-4.459-3.215-1.763-0.726-1.97-1.659-1.97-2.489s0.415-1.659 0.933-2.178c0.726-0.726 1.141-1.659 1.141-2.696 0.104-1.97-1.037-3.941-3.63-3.941-2.489 0-3.63 1.97-3.63 3.837 0 1.141 0.415 2.074 1.141 2.696s0.933 1.556 0.933 2.178c0 0.83-0.207 1.763-1.867 2.489-1.763 0.83-3.941 1.659-4.563 3.319zM14 7.259c2.696 0 4.77 2.074 4.77 4.874 0 1.452-0.519 2.593-1.556 3.526-0.415 0.311-0.622 0.933-0.622 1.452 0 0.415 0 0.933 1.244 1.452 1.763 0.726 3.941 1.659 4.978 3.422 1.97-2.074 3.111-4.978 3.111-7.985 0-6.533-5.393-11.926-11.926-11.926s-11.926 5.393-11.926 11.926c0 3.111 1.141 5.911 3.111 7.985 1.037-1.763 3.215-2.696 4.874-3.422 1.348-0.519 1.348-1.141 1.348-1.556s-0.207-1.037-0.622-1.452c-0.933-0.83-1.452-2.074-1.452-3.526 0-2.8 1.97-4.77 4.667-4.77z"></path>
<path fill="#fff" d="M6.015 22.815l-0.194-0.073-0.048 0.129 0.1 0.095 0.143-0.15zM21.985 22.815l0.143 0.15 0.105-0.1-0.058-0.133-0.19 0.083zM17.526 19.6l0.083-0.19-0.004-0.002-0.079 0.192zM17.63 12.237l-0.207-0.011v0.011h0.207zM10.578 19.496l-0.083-0.19-0.005 0.002 0.088 0.188zM17.215 15.659l0.124 0.166 0.007-0.006 0.007-0.006-0.139-0.154zM17.837 18.563l-0.080 0.191 0.001 0 0.079-0.192zM22.815 21.985l-0.179 0.105 0.14 0.237 0.19-0.2-0.15-0.143zM5.185 21.985l-0.15 0.143 0.19 0.2 0.14-0.237-0.179-0.105zM10.059 18.563l-0.075-0.194-0.009 0.004 0.083 0.19zM10.785 15.556l0.147-0.147-0.009-0.008-0.138 0.155zM14 26.756c-7.041 0-12.756-5.715-12.756-12.756h-0.415c0 7.27 5.9 13.17 13.17 13.17v-0.415zM1.244 14c0-7.041 5.715-12.756 12.756-12.756v-0.415c-7.27 0-13.17 5.9-13.17 13.17h0.415zM14 1.244c7.041 0 12.756 5.715 12.756 12.756h0.415c0-7.27-5.9-13.17-13.17-13.17v0.415zM26.756 14c0 7.041-5.715 12.756-12.756 12.756v0.415c7.27 0 13.17-5.9 13.17-13.17h-0.415zM5.872 22.965c2.114 2.009 5.070 3.168 8.128 3.168v-0.415c-2.957 0-5.808-1.122-7.842-3.054l-0.286 0.301zM14 26.133c3.058 0 6.014-1.16 8.128-3.168l-0.286-0.301c-2.034 1.932-4.886 3.054-7.842 3.054v0.415zM22.175 22.732c-0.387-0.885-1.127-1.535-1.96-2.051-0.831-0.514-1.778-0.909-2.606-1.271l-0.166 0.38c0.831 0.364 1.751 0.746 2.554 1.244 0.8 0.495 1.46 1.090 1.799 1.864l0.38-0.166zM17.605 19.408c-0.856-0.353-1.308-0.744-1.55-1.125-0.252-0.386-0.292-0.769-0.292-1.172h-0.415c0 0.427 0.064 0.925 0.357 1.395 0.302 0.475 0.835 0.913 1.742 1.286l0.158-0.383zM15.763 17.111c0-0.766 0.387-1.545 0.873-2.031l-0.293-0.293c-0.551 0.551-0.994 1.432-0.994 2.324h0.415zM16.636 15.080c0.762-0.762 1.202-1.747 1.202-2.843h-0.415c0 0.978-0.39 1.86-1.080 2.55l0.293 0.293zM17.837 12.248c0.054-1.026-0.215-2.064-0.849-2.85-0.639-0.791-1.633-1.309-2.987-1.309v0.415c1.239 0 2.111 0.468 2.665 1.154 0.558 0.692 0.808 1.624 0.758 2.568l0.414 0.022zM14 8.089c-1.305 0-2.272 0.52-2.908 1.294-0.632 0.769-0.929 1.778-0.929 2.75h0.415c0-0.894 0.274-1.804 0.834-2.487 0.556-0.677 1.404-1.143 2.588-1.143v-0.415zM10.163 12.133c0 1.193 0.435 2.187 1.213 2.854l0.27-0.315c-0.674-0.578-1.068-1.45-1.068-2.539h-0.415zM11.376 14.987c0.663 0.568 0.861 1.432 0.861 2.020h0.415c0-0.656-0.217-1.659-1.006-2.335l-0.27 0.315zM12.237 17.007c0 0.403-0.041 0.788-0.281 1.176-0.231 0.381-0.658 0.772-1.461 1.123l0.166 0.38c0.856-0.375 1.362-0.814 1.65-1.288 0.278-0.468 0.341-0.964 0.341-1.391h-0.415zM10.489 19.309c-0.878 0.413-1.873 0.833-2.73 1.359s-1.604 1.18-1.939 2.074l0.388 0.146c0.287-0.765 0.94-1.357 1.768-1.867s1.803-0.92 2.689-1.337l-0.177-0.375zM14 7.467c2.579 0 4.563 1.978 4.563 4.667h0.415c0-2.912-2.164-5.081-4.978-5.081v0.415zM18.563 12.133c0 1.393-0.494 2.478-1.487 3.372l0.278 0.308c1.081-0.973 1.624-2.17 1.624-3.68h-0.415zM17.090 15.493c-0.486 0.364-0.705 1.062-0.705 1.618h0.415c0-0.481 0.195-1.028 0.539-1.286l-0.249-0.332zM16.385 17.111c0 0.207 0.008 0.498 0.188 0.798 0.188 0.298 0.544 0.578 1.185 0.845l0.159-0.383c-0.603-0.251-0.87-0.489-0.993-0.684-0.132-0.193-0.124-0.369-0.124-0.576h-0.415zM17.758 18.755c1.778 0.732 3.882 1.643 4.878 3.336l0.358-0.21c-1.079-1.833-3.329-2.789-5.078-3.509l-0.158 0.383zM22.965 22.128c2.009-2.114 3.168-5.070 3.168-8.128h-0.415c0 2.956-1.122 5.808-3.054 7.842l0.301 0.286zM26.133 14c0-6.648-5.485-12.133-12.133-12.133v0.415c6.419 0 11.719 5.3 11.719 11.719h0.415zM14 1.867c-6.648 0-12.133 5.485-12.133 12.133h0.415c0-6.419 5.3-11.719 11.719-11.719v-0.415zM1.867 14c0 3.163 1.16 6.015 3.168 8.128l0.301-0.286c-1.933-2.035-3.054-4.783-3.054-7.842h-0.415zM5.364 22.090c0.996-1.694 3.101-2.604 4.778-3.337l-0.166-0.38c-1.641 0.718-3.892 1.675-4.97 3.507l0.358 0.21zM10.134 18.757c0.697-0.268 1.080-0.576 1.282-0.901 0.192-0.325 0.2-0.641 0.2-0.848h-0.415c0 0.207 0.008 0.41-0.137 0.63-0.136 0.219-0.427 0.482-1.078 0.732l0.149 0.387zM11.615 17.007c0-0.466-0.227-1.142-0.683-1.598l-0.293 0.293c0.373 0.373 0.561 0.942 0.561 1.305h0.415zM10.923 15.401c-0.882-0.784-1.382-1.969-1.382-3.371h-0.415c0 1.502 0.537 2.806 1.521 3.681l0.276-0.31zM9.541 12.030c0-2.688 1.881-4.563 4.459-4.563v-0.415c-2.814 0-4.874 2.066-4.874 4.978h0.415z"></path>
</svg>
