<!-- Generated by IcoMoon.io -->
<svg version="1.1" xmlns="http://www.w3.org/2000/svg" width="28" height="28" viewBox="0 0 28 28">
<title>icon-search</title>
<path fill="#fff" opacity="0.8" d="M26.030 26.756l-8.607-8.607c-1.763 1.556-4.044 2.489-6.637 2.489-5.289 0.104-9.748-4.356-9.748-9.748s4.459-9.852 9.852-9.852c5.393 0 9.852 4.459 9.852 9.852 0 2.489-0.933 4.874-2.489 6.637l8.607 8.607-0.83 0.622zM10.889 2.074c-4.874 0-8.815 3.941-8.815 8.815s3.941 8.815 8.815 8.815c4.874 0 8.815-3.941 8.815-8.815s-3.941-8.815-8.815-8.815z"></path>
<path fill="#fff" opacity="0.8" d="M26.030 26.756l-0.147 0.147 0.127 0.127 0.144-0.108-0.124-0.166zM17.422 18.148l0.147-0.147-0.138-0.138-0.146 0.129 0.137 0.156zM10.785 20.637v-0.207h-0.004l0.004 0.207zM18.252 17.526l-0.156-0.137-0.129 0.146 0.138 0.138 0.147-0.147zM26.859 26.133l0.124 0.166 0.191-0.144-0.169-0.169-0.147 0.147zM26.176 26.609l-8.607-8.607-0.293 0.293 8.607 8.607 0.293-0.293zM17.285 17.993c-1.735 1.535-3.947 2.441-6.5 2.437v0.415c2.633-0.004 4.983-0.965 6.774-2.541l-0.274-0.311zM10.781 20.43c-5.169 0.101-9.537-4.26-9.537-9.541h-0.415c0 5.505 4.551 10.062 9.96 9.956l-0.008-0.415zM1.244 10.889c0-5.278 4.366-9.644 9.644-9.644v-0.415c-5.507 0-10.059 4.552-10.059 10.059h0.415zM10.889 1.244c5.278 0 9.644 4.366 9.644 9.644h0.415c0-5.507-4.552-10.059-10.059-10.059v0.415zM20.533 10.889c0.004 2.45-0.903 4.766-2.437 6.5l0.311 0.274c1.577-1.792 2.537-4.247 2.541-6.774h-0.415zM18.105 17.673l8.607 8.607 0.293-0.293-8.607-8.607-0.293 0.293zM26.735 25.967l-0.83 0.622 0.249 0.332 0.83-0.622-0.249-0.332zM10.889 1.867c-4.989 0-9.022 4.034-9.022 9.022h0.415c0-4.76 3.848-8.607 8.607-8.607v-0.415zM1.867 10.889c0 4.989 4.034 9.022 9.022 9.022v-0.415c-4.76 0-8.607-3.848-8.607-8.607h-0.415zM10.889 19.911c4.989 0 9.022-4.034 9.022-9.022h-0.415c0 4.759-3.848 8.607-8.607 8.607v0.415zM19.911 10.889c0-4.989-4.034-9.022-9.022-9.022v0.415c4.759 0 8.607 3.848 8.607 8.607h0.415z"></path>
</svg>
