<!-- Generated by IcoMoon.io -->
<svg version="1.1" xmlns="http://www.w3.org/2000/svg" width="28" height="28" viewBox="0 0 28 28">
<title>icon-lightbulb-Idea</title>
<path fill="#fff" d="M14 26.963c-1.97 0-3.63-1.659-3.63-3.63v-1.244c0-1.348-0.519-2.593-1.452-3.733-1.244-1.452-1.867-3.526-1.556-5.496 0.415-2.904 2.904-5.185 5.911-5.6 1.867-0.207 3.837 0.415 5.289 1.659s2.281 3.111 2.281 4.978c0 1.659-0.622 3.215-1.659 4.459-0.933 1.037-1.452 2.385-1.452 3.63v1.244c-0.104 2.074-1.763 3.733-3.733 3.733zM11.407 22.815v0.519c0 1.452 1.141 2.593 2.593 2.593s2.593-1.141 2.593-2.593v-0.519h-5.185zM16.593 21.778c0.104-1.452 0.726-2.904 1.659-4.044 0.933-1.037 1.452-2.385 1.452-3.733 0-1.659-0.726-3.215-1.867-4.252-1.244-1.141-2.8-1.556-4.459-1.452-2.489 0.311-4.563 2.281-4.978 4.77-0.311 1.659 0.207 3.319 1.348 4.667 1.037 1.244 1.659 2.593 1.763 4.044h5.081zM26.963 15.556h-4.148v-1.037h4.148v1.037zM5.185 15.556h-4.148v-1.037h4.148v1.037zM21.467 8.089l-0.726-0.726 2.904-2.904 0.726 0.726-2.904 2.904zM6.119 8.089l-3.007-3.007 0.726-0.726 2.904 2.904-0.622 0.83zM14.519 5.185h-1.037v-4.148h1.037v4.148z"></path>
<path fill="#fff" d="M8.919 18.356l0.161-0.131-0.003-0.004-0.157 0.135zM7.363 12.859l0.205 0.032 0-0.003-0.205-0.029zM13.274 7.259l-0.023-0.206-0.005 0.001 0.028 0.205zM19.185 18.356l0.154 0.139 0.005-0.006-0.159-0.133zM17.733 23.23l0.207 0.010v-0.010h-0.207zM11.407 22.815v-0.207h-0.207v0.207h0.207zM16.593 22.815h0.207v-0.207h-0.207v0.207zM16.593 21.778v0.207h0.193l0.014-0.193-0.207-0.015zM18.252 17.733l-0.154-0.139-0.006 0.008 0.161 0.131zM17.837 9.748l-0.14 0.153 0.001 0.001 0.139-0.153zM13.378 8.296l-0.013-0.207-0.013 0.002 0.026 0.206zM8.4 13.067l0.204 0.038 0.001-0.004-0.205-0.034zM9.748 17.733l0.159-0.133-0.001-0.001-0.158 0.134zM11.511 21.778l-0.207 0.015 0.014 0.193h0.193v-0.207zM26.963 15.556v0.207h0.207v-0.207h-0.207zM22.815 15.556h-0.207v0.207h0.207v-0.207zM22.815 14.519v-0.207h-0.207v0.207h0.207zM26.963 14.519h0.207v-0.207h-0.207v0.207zM5.185 15.556v0.207h0.207v-0.207h-0.207zM1.037 15.556h-0.207v0.207h0.207v-0.207zM1.037 14.519v-0.207h-0.207v0.207h0.207zM5.185 14.519h0.207v-0.207h-0.207v0.207zM21.467 8.089l-0.147 0.147 0.147 0.147 0.147-0.147-0.147-0.147zM20.741 7.363l-0.147-0.147-0.147 0.147 0.147 0.147 0.147-0.147zM23.644 4.459l0.147-0.147-0.147-0.147-0.147 0.147 0.147 0.147zM24.37 5.185l0.147 0.147 0.147-0.147-0.147-0.147-0.147 0.147zM6.119 8.089l-0.147 0.147 0.169 0.169 0.143-0.191-0.166-0.124zM3.111 5.081l-0.147-0.147-0.147 0.147 0.147 0.147 0.147-0.147zM3.837 4.356l0.147-0.147-0.147-0.147-0.147 0.147 0.147 0.147zM6.741 7.259l0.166 0.124 0.108-0.144-0.127-0.127-0.147 0.147zM14.519 5.185v0.207h0.207v-0.207h-0.207zM13.481 5.185h-0.207v0.207h0.207v-0.207zM13.481 1.037v-0.207h-0.207v0.207h0.207zM14.519 1.037h0.207v-0.207h-0.207v0.207zM14 26.756c-1.856 0-3.422-1.566-3.422-3.422h-0.415c0 2.085 1.752 3.837 3.837 3.837v-0.415zM10.578 23.333v-1.244h-0.415v1.244h0.415zM10.578 22.089c-0.004-1.389-0.548-2.699-1.499-3.865l-0.321 0.263c0.916 1.116 1.409 2.295 1.405 3.602h0.415zM9.076 18.221c-1.206-1.407-1.81-3.42-1.508-5.329l-0.41-0.065c-0.321 2.032 0.32 4.167 1.603 5.664l0.315-0.27zM7.568 12.889c0.4-2.802 2.808-5.020 5.734-5.424l-0.057-0.411c-3.089 0.426-5.659 2.771-6.088 5.776l0.411 0.059zM13.297 7.465c1.808-0.201 3.722 0.402 5.131 1.611l0.27-0.315c-1.494-1.281-3.521-1.922-5.447-1.708l0.046 0.412zM18.428 9.076c1.405 1.204 2.209 3.013 2.209 4.82h0.415c0-1.926-0.855-3.851-2.354-5.135l-0.27 0.315zM20.637 13.896c0.004 1.62-0.593 3.109-1.611 4.327l0.319 0.265c1.056-1.271 1.704-2.894 1.707-4.592h-0.415zM19.031 18.217c-0.965 1.073-1.505 2.47-1.505 3.768h0.415c0-1.19 0.497-2.49 1.399-3.491l-0.308-0.278zM17.526 21.985v1.244h0.415v-1.244h-0.415zM17.526 23.219c-0.099 1.973-1.676 3.536-3.526 3.536v0.415c2.090 0 3.832-1.756 3.941-3.93l-0.414-0.021zM11.2 22.815v0.519h0.415v-0.519h-0.415zM11.2 23.333c0 1.566 1.234 2.8 2.8 2.8v-0.415c-1.337 0-2.385-1.048-2.385-2.385h-0.415zM14 26.133c1.566 0 2.8-1.234 2.8-2.8h-0.415c0 1.337-1.048 2.385-2.385 2.385v0.415zM16.8 23.333v-0.519h-0.415v0.519h0.415zM16.593 22.607h-5.185v0.415h5.185v-0.415zM16.799 21.793c0.098-1.418 0.696-2.811 1.613-3.928l-0.321-0.263c-0.95 1.164-1.597 2.675-1.706 4.161l0.414 0.029zM18.406 17.872c0.956-1.067 1.502-2.486 1.505-3.872h-0.415c0.004 1.31-0.488 2.588-1.399 3.595l0.308 0.278zM19.911 14c0-1.719-0.751-3.33-1.935-4.405l-0.279 0.307c1.098 0.998 1.799 2.499 1.799 4.098h0.415zM17.977 9.595c-1.294-1.186-2.909-1.612-4.612-1.506l0.026 0.414c1.615-0.101 3.111 0.303 4.306 1.398l0.28-0.306zM13.352 8.090c-2.579 0.322-4.727 2.362-5.157 4.942l0.409 0.068c0.4-2.398 2.4-4.299 4.799-4.599l-0.051-0.412zM8.196 13.028c-0.324 1.729 0.218 3.45 1.394 4.839l0.317-0.268c-1.106-1.307-1.601-2.905-1.303-4.494l-0.408-0.077zM9.589 17.866c1.021 1.222 1.618 2.511 1.715 3.926l0.414-0.029c-0.11-1.489-0.757-2.896-1.811-4.162l-0.319 0.265zM11.511 21.985h5.081v-0.415h-5.081v0.415zM26.963 15.348h-4.148v0.415h4.148v-0.415zM23.022 15.556v-1.037h-0.415v1.037h0.415zM22.815 14.726h4.148v-0.415h-4.148v0.415zM26.756 14.519v1.037h0.415v-1.037h-0.415zM5.185 15.348h-4.148v0.415h4.148v-0.415zM1.244 15.556v-1.037h-0.415v1.037h0.415zM1.037 14.726h4.148v-0.415h-4.148v0.415zM4.978 14.519v1.037h0.415v-1.037h-0.415zM21.613 7.942l-0.726-0.726-0.293 0.293 0.726 0.726 0.293-0.293zM20.887 7.51l2.904-2.904-0.293-0.293-2.904 2.904 0.293 0.293zM23.498 4.606l0.726 0.726 0.293-0.293-0.726-0.726-0.293 0.293zM24.224 5.039l-2.904 2.904 0.293 0.293 2.904-2.904-0.293-0.293zM6.265 7.942l-3.007-3.007-0.293 0.293 3.007 3.007 0.293-0.293zM3.258 5.228l0.726-0.726-0.293-0.293-0.726 0.726 0.293 0.293zM3.69 4.502l2.904 2.904 0.293-0.293-2.904-2.904-0.293 0.293zM6.575 7.135l-0.622 0.83 0.332 0.249 0.622-0.83-0.332-0.249zM14.519 4.978h-1.037v0.415h1.037v-0.415zM13.689 5.185v-4.148h-0.415v4.148h0.415zM13.481 1.244h1.037v-0.415h-1.037v0.415zM14.311 1.037v4.148h0.415v-4.148h-0.415z"></path>
</svg>
