<!-- Generated by IcoMoon.io -->
<svg version="1.1" xmlns="http://www.w3.org/2000/svg" width="28" height="28" viewBox="0 0 28 28">
<title>icon-twitter</title>
<path fill="#e55570" d="M28 14c0 7.732-6.268 14-14 14s-14-6.268-14-14c0-7.732 6.268-14 14-14s14 6.268 14 14z"></path>
<path fill="#fff" d="M19.696 11.616c0.492-0.369 0.935-0.812 1.304-1.354-0.492 0.221-0.984 0.369-1.477 0.418 0.541-0.345 0.935-0.812 1.132-1.427-0.517 0.295-1.058 0.517-1.649 0.615-0.246-0.246-0.541-0.443-0.861-0.591s-0.664-0.221-1.034-0.221c-0.468 0-0.886 0.123-1.28 0.345-0.394 0.246-0.714 0.566-0.935 0.96-0.246 0.394-0.345 0.837-0.345 1.28 0 0.197 0 0.394 0.049 0.591-1.058-0.049-2.043-0.295-2.978-0.787-0.935-0.468-1.698-1.107-2.338-1.92-0.246 0.418-0.369 0.861-0.369 1.304s0.098 0.861 0.32 1.23c0.197 0.394 0.492 0.689 0.837 0.935-0.418 0-0.812-0.123-1.157-0.345v0.049c0 0.615 0.197 1.157 0.591 1.624 0.394 0.492 0.886 0.787 1.477 0.911-0.246 0.049-0.468 0.074-0.689 0.074-0.148 0-0.32 0-0.468-0.025 0.148 0.517 0.443 0.935 0.886 1.28s0.935 0.492 1.526 0.492c-0.96 0.738-2.043 1.107-3.224 1.107-0.246 0-0.443 0-0.615-0.025 1.181 0.787 2.51 1.157 3.962 1.157 1.501 0 2.83-0.369 4.011-1.157 1.058-0.689 1.895-1.6 2.486-2.781 0.566-1.083 0.861-2.239 0.861-3.421 0-0.148-0.025-0.246-0.025-0.32z"></path>
</svg>
