<!-- Generated by IcoMoon.io -->
<svg version="1.1" xmlns="http://www.w3.org/2000/svg" width="28" height="28" viewBox="0 0 28 28">
<title>icon-hint</title>
<path fill="#fff" opacity="0.8" d="M28 14c0 7.732-6.268 14-14 14s-14-6.268-14-14c0-7.732 6.268-14 14-14s14 6.268 14 14z"></path>
<path fill="#e55570" d="M12.681 16.448v-0.542c0-0.249 0.024-0.474 0.073-0.674 0.054-0.205 0.132-0.398 0.234-0.579 0.107-0.185 0.244-0.364 0.41-0.535 0.166-0.176 0.366-0.356 0.601-0.542 0.205-0.161 0.378-0.305 0.52-0.432s0.256-0.251 0.344-0.374c0.088-0.127 0.151-0.259 0.19-0.396s0.059-0.295 0.059-0.476c0-0.278-0.095-0.508-0.286-0.688-0.186-0.181-0.471-0.271-0.857-0.271-0.337 0-0.701 0.071-1.091 0.212-0.386 0.142-0.786 0.315-1.201 0.52l-0.747-1.619c0.21-0.122 0.437-0.237 0.681-0.344 0.249-0.112 0.505-0.21 0.769-0.293 0.269-0.088 0.54-0.156 0.813-0.205s0.542-0.073 0.806-0.073c0.498 0 0.947 0.061 1.348 0.183 0.4 0.117 0.74 0.291 1.018 0.52s0.491 0.508 0.637 0.835c0.151 0.327 0.227 0.701 0.227 1.121 0 0.308-0.034 0.583-0.103 0.828-0.068 0.239-0.171 0.464-0.308 0.674-0.132 0.205-0.3 0.405-0.505 0.601-0.2 0.19-0.435 0.393-0.703 0.608-0.205 0.161-0.374 0.303-0.505 0.425-0.127 0.117-0.227 0.229-0.3 0.337s-0.125 0.22-0.154 0.337c-0.024 0.112-0.037 0.247-0.037 0.403v0.439h-1.934zM12.439 18.953c0-0.229 0.032-0.422 0.095-0.579 0.068-0.161 0.161-0.291 0.278-0.388s0.254-0.168 0.41-0.212c0.161-0.044 0.332-0.066 0.513-0.066 0.171 0 0.332 0.022 0.483 0.066 0.156 0.044 0.293 0.115 0.41 0.212s0.21 0.227 0.278 0.388c0.068 0.156 0.103 0.349 0.103 0.579 0 0.22-0.034 0.408-0.103 0.564s-0.161 0.286-0.278 0.388c-0.117 0.103-0.254 0.176-0.41 0.22-0.151 0.049-0.313 0.073-0.483 0.073-0.181 0-0.352-0.024-0.513-0.073-0.156-0.044-0.293-0.117-0.41-0.22s-0.21-0.232-0.278-0.388c-0.063-0.156-0.095-0.344-0.095-0.564z"></path>
</svg>
