<!-- Generated by IcoMoon.io -->
<svg version="1.1" xmlns="http://www.w3.org/2000/svg" width="28" height="28" viewBox="0 0 28 28">
<title>icon-peace-sign</title>
<path fill="#fff" d="M21.126 8.357h-0.202c-0.806 0-1.512 0.403-1.915 0.907-0.403-0.504-1.109-0.907-1.915-0.907h-0.202c-0.403 0-0.706 0.101-1.008 0.202l0.706-4.435c0.101-0.605 0-1.31-0.403-1.814s-0.907-0.806-1.613-1.008c-1.31-0.202-2.52 0.706-2.822 2.016l-1.008 4.939-0.907-4.939c-0.101-0.605-0.504-1.21-1.008-1.512-0.504-0.403-1.109-0.605-1.814-0.504-1.31 0.302-2.117 1.512-1.915 2.822l1.915 9.878-1.512 1.008c-1.814 1.512-0.806 3.024-0.403 3.528 0.202 0.302 0.403 0.605 0.605 1.008 0.706 1.008 1.512 2.318 2.117 3.125 1.814 2.419 4.738 3.83 7.459 3.83 4.536 0 8.266-3.125 8.266-6.955v-8.769c0-1.31-1.109-2.419-2.419-2.419zM16.893 9.365h0.202c0.806 0 1.411 0.605 1.411 1.411v4.233c0 0.806-0.605 1.411-1.411 1.411h-0.202c-0.806 0-1.411-0.605-1.411-1.411v-4.133l0.101-0.706c0.302-0.504 0.706-0.806 1.31-0.806zM12.76 3.418c0.202-0.706 0.907-1.21 1.714-1.109 0.403 0.101 0.706 0.302 0.907 0.605s0.302 0.706 0.202 1.008l-0.907 5.846c-0.101 0.403-0.202 0.706-0.202 1.008v0.403c0 0 0-0.101-0.101-0.101-0.806-0.806-2.117-0.907-3.024-0.403l1.411-7.257zM6.107 3.921c-0.202-0.706 0.302-1.411 1.109-1.613 0.403-0.101 0.706 0 1.008 0.202s0.504 0.504 0.605 0.907l1.21 5.947 0.302 1.714c0 0.101 0.101 0.202 0.202 0.302l-2.621 1.915-1.814-9.374zM15.28 25.492c-2.419 0-5.040-1.31-6.653-3.326-0.605-0.706-1.411-2.016-2.016-3.024-0.202-0.403-0.403-0.706-0.605-1.008-0.605-0.907-0.706-1.512 0.202-2.217l5.544-4.032c0.504-0.504 1.411-0.504 2.016 0 0.302 0.302 0.403 0.605 0.403 1.008s-0.101 0.706-0.403 0.907l-4.133 3.225c-0.202 0.101-0.202 0.403-0.202 0.605 0.101 0.202 0.302 0.302 0.504 0.302 0.504 0 2.016 0.101 2.822 0.806 0.403 0.403 0.605 1.008 0.605 1.714h1.008c0-1.008-0.302-1.814-1.008-2.419-0.605-0.605-1.512-0.907-2.218-1.008l3.125-2.419v0.605c0 1.31 1.109 2.419 2.419 2.419h0.202c0.806 0 1.512-0.403 1.915-0.907 0.403 0.605 1.109 0.907 1.915 0.907h0.202c0.504 0 1.008-0.202 1.411-0.504v2.621c0.202 3.125-3.024 5.745-7.056 5.745zM22.537 15.009c0 0.806-0.605 1.411-1.411 1.411h-0.202c-0.806 0-1.411-0.605-1.411-1.411v-4.233c0-0.806 0.605-1.411 1.411-1.411h0.202c0.806 0 1.411 0.605 1.411 1.411v4.233z"></path>
<path fill="#fff" d="M19.009 9.264l-0.199 0.159 0.199 0.248 0.199-0.248-0.199-0.159zM15.885 8.558l-0.251-0.040-0.066 0.414 0.398-0.133-0.080-0.241zM16.59 4.123l-0.251-0.042-0 0.002 0.251 0.040zM14.574 1.301l0.070-0.245-0.015-0.004-0.016-0.002-0.039 0.252zM11.752 3.317l-0.248-0.057-0.001 0.006 0.249 0.051zM10.744 8.256l-0.25 0.046 0.5 0.005-0.249-0.051zM9.837 3.317l-0.251 0.042 0.001 0.004 0.25-0.046zM8.829 1.805l-0.159 0.199 0.013 0.011 0.015 0.009 0.131-0.218zM7.014 1.301l-0.036-0.252-0.011 0.002-0.011 0.002 0.057 0.248zM5.099 4.123l-0.252 0.039 0.002 0.010 0.25-0.048zM7.014 14.001l0.141 0.212 0.141-0.094-0.032-0.166-0.25 0.048zM5.502 15.009l-0.141-0.212-0.011 0.008-0.010 0.009 0.163 0.195zM5.099 18.537l0.212-0.141-0.006-0.009-0.007-0.009-0.199 0.159zM5.704 19.545l-0.228 0.114 0.008 0.017 0.011 0.015 0.209-0.146zM7.821 22.67v0zM15.481 10.876l-0.252-0.036-0.003 0.018v0.018h0.255zM15.582 10.171l-0.218-0.131-0.026 0.044-0.007 0.051 0.252 0.036zM12.76 3.418l-0.245-0.070-0.003 0.011-0.002 0.011 0.25 0.049zM14.473 2.309l0.062-0.247-0.015-0.004-0.015-0.002-0.032 0.253zM15.582 3.921l-0.241-0.080-0.007 0.020-0.003 0.021 0.252 0.039zM14.675 9.768l0.247 0.062 0.003-0.011 0.002-0.011-0.252-0.039zM14.373 11.078l-0.18 0.18 0.075 0.075h0.105v-0.255zM11.349 10.675l-0.25-0.049-0.104 0.537 0.478-0.265-0.124-0.223zM6.107 3.921l0.25-0.048-0.002-0.011-0.003-0.011-0.245 0.070zM7.216 2.309v0zM8.829 3.418l0.25-0.051-0.003-0.011-0.247 0.062zM10.038 9.365l0.251-0.044-0.001-0.006-0.249 0.051zM10.341 11.078h0.255v-0.022l-0.004-0.022-0.251 0.044zM10.542 11.38l0.15 0.206 0.24-0.175-0.21-0.21-0.18 0.18zM7.921 13.296l-0.25 0.048 0.076 0.394 0.324-0.237-0.15-0.206zM8.627 22.166l0.199-0.159-0.006-0.006-0.193 0.166zM6.611 19.142l-0.228 0.114 0.004 0.009 0.005 0.008 0.218-0.131zM6.006 18.134v0zM6.208 15.916l-0.15-0.206-0.006 0.005 0.156 0.201zM11.752 11.884l0.15 0.206 0.016-0.012 0.014-0.014-0.18-0.18zM13.768 11.884l0.18-0.18-0.008-0.008-0.009-0.007-0.163 0.196zM13.768 13.8l-0.141-0.212-0.008 0.005-0.008 0.006 0.157 0.201zM9.635 17.025l0.114 0.228 0.023-0.011 0.020-0.016-0.157-0.201zM9.433 17.63h-0.255v0.060l0.027 0.054 0.228-0.114zM12.76 18.739l0.18-0.18-0.013-0.011-0.168 0.192zM13.365 20.452h-0.255v0.255h0.255v-0.255zM14.373 20.452v0.255h0.255v-0.255h-0.255zM13.365 18.033l-0.18 0.18 0.007 0.007 0.007 0.006 0.166-0.193zM11.147 17.025l-0.156-0.201-0.476 0.368 0.595 0.085 0.036-0.252zM14.272 14.606h0.255v-0.519l-0.41 0.318 0.156 0.201zM18.808 16.723l0.212-0.141-0.193-0.29-0.218 0.272 0.199 0.159zM22.336 17.126h0.255v-0.509l-0.407 0.305 0.153 0.204zM22.336 19.747h-0.255l0.001 0.016 0.254-0.016zM21.126 8.102h-0.202v0.509h0.202v-0.509zM20.925 8.102c-0.89 0-1.666 0.443-2.114 1.003l0.398 0.318c0.359-0.448 0.993-0.812 1.716-0.812v-0.509zM19.208 9.105c-0.448-0.56-1.224-1.003-2.114-1.003v0.509c0.723 0 1.358 0.363 1.716 0.812l0.398-0.318zM17.094 8.102h-0.202v0.509h0.202v-0.509zM16.893 8.102c-0.444 0.003-0.786 0.114-1.088 0.215l0.161 0.483c0.302-0.101 0.565-0.192 0.928-0.189v-0.509zM16.136 8.598l0.706-4.435-0.503-0.080-0.706 4.435 0.503 0.080zM16.841 4.165c0.109-0.654 0.005-1.439-0.456-2.015l-0.398 0.318c0.346 0.432 0.444 1.058 0.351 1.613l0.502 0.084zM16.386 2.15c-0.434-0.537-1.005-0.881-1.742-1.094l-0.14 0.49c0.674 0.19 1.112 0.451 1.484 0.922l0.398-0.318zM14.613 1.049c-1.456-0.224-2.78 0.785-3.109 2.21l0.496 0.114c0.276-1.195 1.371-2.001 2.536-1.822l0.077-0.503zM11.502 3.266l-1.008 4.939 0.499 0.102 1.008-4.939-0.499-0.102zM10.994 8.21l-0.907-4.939-0.501 0.092 0.907 4.939 0.501-0.092zM10.088 3.275c-0.112-0.675-0.557-1.346-1.128-1.688l-0.262 0.437c0.437 0.262 0.799 0.801 0.888 1.336l0.502-0.084zM8.988 1.606c-0.554-0.443-1.228-0.669-2.009-0.557l0.072 0.504c0.63-0.090 1.165 0.087 1.619 0.451l0.318-0.398zM6.957 1.053c-1.441 0.333-2.331 1.668-2.11 3.109l0.503-0.077c-0.181-1.179 0.541-2.263 1.721-2.536l-0.114-0.496zM4.849 4.172l1.915 9.878 0.5-0.097-1.915-9.878-0.5 0.097zM6.873 13.789l-1.512 1.008 0.282 0.424 1.512-1.008-0.282-0.424zM5.339 14.814c-0.966 0.805-1.21 1.643-1.123 2.368 0.091 0.69 0.477 1.256 0.684 1.515l0.398-0.318c-0.197-0.246-0.515-0.688-0.576-1.257-0.064-0.535 0.095-1.209 0.943-1.916l-0.326-0.391zM4.887 18.678c0.202 0.302 0.395 0.591 0.589 0.981l0.455-0.228c-0.209-0.417-0.419-0.733-0.621-1.035l-0.424 0.282zM5.495 19.691c0.701 1.002 1.51 2.316 2.122 3.131l0.407-0.305c-0.598-0.797-1.402-2.104-2.112-3.118l-0.417 0.292zM7.617 22.822c1.862 2.482 4.86 3.932 7.663 3.932v-0.509c-2.64 0-5.488-1.372-7.256-3.728l-0.407 0.305zM15.28 26.755c4.633 0 8.52-3.199 8.52-7.209h-0.509c0 3.65-3.572 6.7-8.011 6.7v0.509zM23.8 19.545v-4.536h-0.509v4.536h0.509zM23.8 15.009v-0.605h-0.509v0.605h0.509zM23.8 14.404v-3.629h-0.509v3.629h0.509zM23.8 10.776c0-1.451-1.223-2.674-2.674-2.674v0.509c1.17 0 2.165 0.995 2.165 2.165h0.509zM16.893 9.619h0.202v-0.509h-0.202v0.509zM17.094 9.619c0.666 0 1.157 0.491 1.157 1.157h0.509c0-0.947-0.719-1.666-1.666-1.666v0.509zM18.251 10.776v4.233h0.509v-4.233h-0.509zM18.251 15.009c0 0.666-0.491 1.157-1.157 1.157v0.509c0.947 0 1.666-0.719 1.666-1.666h-0.509zM17.094 16.166h-0.202v0.509h0.202v-0.509zM16.893 16.166c-0.666 0-1.157-0.491-1.157-1.157h-0.509c0 0.947 0.719 1.666 1.666 1.666v-0.509zM15.736 15.009v-4.133h-0.509v4.133h0.509zM15.733 10.912l0.101-0.706-0.504-0.072-0.101 0.706 0.504 0.072zM15.801 10.302c0.269-0.448 0.599-0.683 1.092-0.683v-0.509c-0.716 0-1.193 0.37-1.529 0.93l0.437 0.262zM13.005 3.487c0.168-0.587 0.757-1.011 1.437-0.926l0.063-0.505c-0.933-0.117-1.754 0.467-1.99 1.291l0.49 0.14zM14.412 2.556c0.351 0.088 0.596 0.257 0.757 0.499l0.424-0.282c-0.242-0.363-0.602-0.597-1.057-0.711l-0.123 0.494zM15.169 3.055c0.176 0.263 0.239 0.584 0.172 0.786l0.483 0.161c0.134-0.403-0.004-0.888-0.231-1.23l-0.424 0.282zM15.331 3.882l-0.907 5.846 0.503 0.078 0.907-5.846-0.503-0.078zM14.428 9.706c-0.098 0.394-0.206 0.727-0.209 1.070h0.509c-0.003-0.262 0.091-0.534 0.194-0.946l-0.494-0.123zM14.219 10.776v0.403h0.509v-0.403h-0.509zM14.473 11.179c0.255 0 0.255-0 0.255-0s0-0 0-0 0-0 0-0.001 0-0.001 0-0.001-0-0.002-0-0.002-0-0.003-0-0.005c-0-0.002-0-0.008-0.001-0.013-0-0.006-0.002-0.022-0.004-0.035-0.003-0.019-0.017-0.069-0.034-0.107-0.049-0.099-0.156-0.191-0.316-0.191v0.509c-0.019 0-0.051-0.006-0.083-0.027-0.031-0.020-0.048-0.046-0.057-0.063s-0.011-0.030-0.012-0.037c0 0.004-0.002-0.013-0.001-0.012 0 0.002-0-0.007-0-0.006s-0-0.004-0-0.004c0 0.001-0-0.002-0-0.002s0-0.001 0-0.001c0 0 0-0.001 0-0s0-0 0-0 0-0 0.255-0zM14.553 10.898c-0.894-0.894-2.33-1-3.328-0.446l0.247 0.445c0.817-0.454 2.001-0.358 2.72 0.361l0.36-0.36zM11.599 10.723l1.411-7.257-0.5-0.097-1.411 7.257 0.5 0.097zM6.352 3.852c-0.151-0.529 0.218-1.119 0.926-1.296l-0.123-0.494c-0.905 0.226-1.544 1.048-1.292 1.93l0.49-0.14zM7.278 2.556c0.315-0.079 0.544-0.007 0.805 0.166l0.282-0.424c-0.344-0.229-0.719-0.36-1.211-0.237l0.123 0.494zM8.083 2.722c0.242 0.161 0.411 0.406 0.499 0.757l0.494-0.123c-0.114-0.455-0.348-0.815-0.711-1.057l-0.282 0.424zM8.579 3.468l1.21 5.947 0.499-0.101-1.21-5.947-0.499 0.101zM9.788 9.409l0.302 1.714 0.501-0.088-0.302-1.714-0.501 0.088zM10.086 11.078c0 0.133 0.065 0.239 0.114 0.304s0.112 0.128 0.162 0.178l0.36-0.36c-0.054-0.054-0.090-0.091-0.115-0.124-0.027-0.036-0.012-0.031-0.012 0.002h-0.509zM10.392 11.175l-2.621 1.915 0.3 0.411 2.621-1.915-0.3-0.411zM8.171 13.247l-1.814-9.374-0.5 0.097 1.814 9.374 0.5-0.097zM15.28 25.237c-2.336 0-4.886-1.27-6.454-3.231l-0.398 0.318c1.657 2.072 4.349 3.422 6.852 3.422v-0.509zM8.82 22c-0.592-0.69-1.387-1.983-1.991-2.989l-0.437 0.262c0.606 1.009 1.424 2.337 2.041 3.059l0.387-0.331zM6.839 19.028c-0.209-0.417-0.419-0.733-0.621-1.035l-0.424 0.282c0.202 0.302 0.395 0.591 0.589 0.981l0.455-0.228zM6.218 17.993c-0.299-0.449-0.433-0.768-0.424-1.034 0.009-0.245 0.144-0.511 0.57-0.841l-0.313-0.402c-0.482 0.375-0.749 0.765-0.766 1.225-0.016 0.439 0.203 0.876 0.509 1.335l0.424-0.282zM6.358 16.122l5.544-4.032-0.299-0.412-5.544 4.032 0.299 0.412zM11.932 12.064c0.397-0.397 1.153-0.418 1.673 0.016l0.326-0.391c-0.69-0.575-1.747-0.596-2.359 0.016l0.36 0.36zM13.588 12.064c0.248 0.248 0.329 0.483 0.329 0.828h0.509c0-0.461-0.121-0.831-0.478-1.188l-0.36 0.36zM13.917 12.892c0 0.359-0.086 0.56-0.29 0.695l0.282 0.424c0.401-0.267 0.517-0.671 0.517-1.119h-0.509zM13.611 13.599l-4.133 3.226 0.313 0.401 4.133-3.225-0.313-0.401zM9.521 16.797c-0.201 0.101-0.279 0.293-0.311 0.437-0.030 0.141-0.031 0.295-0.031 0.395h0.509c0-0.101-0.002-0.199 0.019-0.285 0.018-0.082 0.041-0.092 0.042-0.092l-0.228-0.455zM9.206 17.744c0.15 0.3 0.448 0.443 0.732 0.443v-0.509c-0.119 0-0.225-0.058-0.276-0.162l-0.455 0.228zM9.937 18.187c0.246 0 0.723 0.023 1.246 0.133 0.527 0.11 1.055 0.3 1.409 0.61l0.335-0.383c-0.452-0.396-1.083-0.609-1.64-0.725-0.561-0.117-1.092-0.144-1.35-0.144v0.509zM12.58 18.919c0.341 0.341 0.53 0.873 0.53 1.534h0.509c0-0.75-0.214-1.429-0.679-1.894l-0.36 0.36zM13.365 20.707h1.008v-0.509h-1.008v0.509zM14.627 20.452c0-1.065-0.323-1.949-1.097-2.612l-0.331 0.387c0.637 0.546 0.919 1.275 0.919 2.226h0.509zM13.545 17.853c-0.659-0.659-1.627-0.975-2.362-1.080l-0.072 0.504c0.677 0.097 1.523 0.385 2.074 0.936l0.36-0.36zM11.303 17.226l3.125-2.419-0.312-0.403-3.125 2.419 0.312 0.403zM14.017 14.606v0.605h0.509v-0.605h-0.509zM14.017 15.211c0 1.451 1.223 2.674 2.674 2.674v-0.509c-1.17 0-2.165-0.995-2.165-2.165h-0.509zM16.691 17.884h0.202v-0.509h-0.202v0.509zM16.893 17.884c0.89 0 1.666-0.443 2.114-1.003l-0.398-0.318c-0.359 0.448-0.993 0.812-1.716 0.812v0.509zM18.596 16.864c0.462 0.693 1.259 1.020 2.127 1.020v-0.509c-0.745 0-1.359-0.278-1.703-0.794l-0.424 0.282zM20.723 17.884h0.202v-0.509h-0.202v0.509zM20.925 17.884c0.552-0.005 1.133-0.234 1.564-0.555l-0.305-0.407c-0.375 0.284-0.803 0.458-1.258 0.453v0.509zM22.081 17.126v2.621h0.509v-2.621h-0.509zM22.082 19.763c0.094 1.464-0.612 2.825-1.847 3.831s-2.992 1.644-4.955 1.644v0.509c2.069 0 3.942-0.672 5.276-1.758s2.141-2.597 2.034-4.258l-0.508 0.033zM22.283 15.009c0 0.666-0.491 1.157-1.157 1.157v0.509c0.947 0 1.666-0.719 1.666-1.666h-0.509zM21.126 16.166h-0.202v0.509h0.202v-0.509zM20.925 16.166c-0.666 0-1.157-0.491-1.157-1.157h-0.509c0 0.947 0.719 1.666 1.666 1.666v-0.509zM19.768 15.009v-4.233h-0.509v4.233h0.509zM19.768 10.776c0-0.666 0.491-1.157 1.157-1.157v-0.509c-0.947 0-1.666 0.719-1.666 1.666h0.509zM20.925 9.619h0.202v-0.509h-0.202v0.509zM21.126 9.619c0.666 0 1.157 0.491 1.157 1.157h0.509c0-0.947-0.719-1.666-1.666-1.666v0.509zM22.283 10.776v3.629h0.509v-3.629h-0.509zM22.283 14.404v0.605h0.509v-0.605h-0.509z"></path>
</svg>
