<!-- Generated by IcoMoon.io -->
<svg version="1.1" xmlns="http://www.w3.org/2000/svg" width="28" height="28" viewBox="0 0 28 28">
<title>icon-pin</title>
<path fill="#fff" d="M1.948 26.752c-0.1 0-0.299-0.1-0.398-0.199-0.199-0.199-0.199-0.498 0-0.697l7.072-6.873-5.777-5.976c-0.199-0.199-0.199-0.498 0-0.697l0.199-0.199c1.295-1.096 2.988-1.793 4.681-1.793 0.896 0 1.793 0.199 2.59 0.598l5.179-4.881c-0.398-1.195-0.1-2.689 0.896-3.586l0.199-0.199c0.199-0.199 0.498-0.199 0.697 0l9.164 9.462c0.199 0.199 0.199 0.498 0 0.697l-0.199 0.199c-0.996 0.996-2.39 1.195-3.685 0.797l-5.080 4.881c0.299 0.797 0.498 1.693 0.498 2.59 0 1.793-0.697 3.386-1.992 4.582l-0.199 0.199c-0.199 0.199-0.498 0.199-0.697 0l-5.777-5.976-7.072 6.773c-0.1 0.199-0.199 0.299-0.299 0.299zM3.94 12.907l11.753 11.753c0.896-0.996 1.494-2.39 1.494-3.785 0-1.494-0.598-2.889-1.594-3.984l-3.785-3.785c-1.096-1.096-2.49-1.594-3.984-1.594-1.494-0.1-2.889 0.498-3.885 1.394zM16.191 16.194c0.299 0.299 0.598 0.697 0.896 1.096l4.582-4.582c-0.1-0.1-0.299-0.199-0.398-0.299l-5.080-5.080c-0.1-0.1-0.199-0.299-0.299-0.398l-4.681 4.582c0.398 0.299 0.797 0.598 1.096 0.896l3.885 3.785zM16.689 3.245c-0.797 0.996-0.797 2.49 0.1 3.387l5.080 5.080c0.896 0.896 2.39 0.996 3.386 0.1l-8.566-8.566z"></path>
<path fill="#fff" d="M1.549 25.856l-0.195-0.201-0.003 0.003 0.198 0.198zM8.621 18.983l0.195 0.201 0.2-0.195-0.194-0.201-0.201 0.195zM2.844 13.007l0.201-0.195-0.003-0.003-0.198 0.198zM2.844 12.309v0zM3.043 12.11l-0.181-0.214-0.009 0.008-0.008 0.008 0.198 0.198zM10.315 10.915l-0.125 0.25 0.175 0.087 0.142-0.134-0.192-0.204zM15.494 6.034l0.192 0.204 0.13-0.123-0.057-0.17-0.266 0.089zM16.39 2.449l0.188 0.208 0.010-0.010-0.198-0.198zM16.59 2.249v0zM17.287 2.249l0.201-0.195-0.003-0.003-0.198 0.198zM26.451 11.712l-0.201 0.195 0.003 0.003 0.198-0.198zM26.451 12.409v0zM26.251 12.608v0zM22.566 13.405l0.082-0.268-0.157-0.048-0.119 0.114 0.194 0.202zM17.486 18.286l-0.194-0.202-0.133 0.128 0.065 0.173 0.262-0.098zM15.992 25.457l-0.19-0.206-0.008 0.008 0.198 0.198zM15.793 25.657v0zM15.096 25.657l-0.201 0.195 0.003 0.003 0.198-0.198zM9.319 19.68l0.201-0.195-0.194-0.2-0.201 0.193 0.194 0.202zM2.247 26.453l-0.194-0.202-0.035 0.034-0.022 0.043 0.25 0.125zM3.94 12.907l-0.187-0.208-0.219 0.197 0.209 0.209 0.198-0.198zM15.693 24.66l-0.198 0.198 0.209 0.209 0.197-0.219-0.208-0.187zM15.594 16.891l0.207-0.189-0.009-0.009-0.198 0.198zM11.809 13.106v0zM7.824 11.513l-0.019 0.28h0.019v-0.28zM16.191 16.194l0.198-0.198-0.003-0.003-0.195 0.201zM17.088 17.29l-0.224 0.168 0.194 0.258 0.228-0.228-0.198-0.198zM21.67 12.708l0.198 0.198 0.198-0.198-0.198-0.198-0.198 0.198zM21.271 12.409v0zM16.191 7.329v0zM15.893 6.931l0.198-0.198-0.196-0.196-0.198 0.194 0.196 0.2zM11.211 11.513l-0.196-0.2-0.233 0.228 0.261 0.196 0.168-0.224zM12.307 12.409l-0.198 0.198 0.003 0.003 0.195-0.201zM16.689 3.245l0.198-0.198-0.221-0.221-0.195 0.244 0.219 0.175zM16.789 6.632v0zM21.869 11.712v0zM25.255 11.811l0.187 0.208 0.219-0.197-0.209-0.209-0.198 0.198zM1.948 26.472c0.016 0 0.016 0.003-0.005-0.004-0.023-0.007-0.040-0.014-0.069-0.029-0.057-0.029-0.104-0.062-0.126-0.084l-0.396 0.396c0.070 0.068 0.182 0.144 0.272 0.189 0.083 0.042 0.207 0.092 0.324 0.092v-0.56zM1.747 26.355c-0.090-0.090-0.090-0.211 0-0.301l-0.396-0.396c-0.309 0.309-0.309 0.785 0 1.093l0.396-0.396zM1.745 26.057l7.072-6.873-0.39-0.402-7.072 6.873 0.39 0.402zM8.823 18.788l-5.777-5.976-0.403 0.389 5.777 5.976 0.403-0.389zM3.042 12.809c-0.090-0.090-0.090-0.211 0-0.301l-0.396-0.396c-0.309 0.309-0.309 0.785 0 1.093l0.396-0.396zM3.042 12.507l0.199-0.199-0.396-0.396-0.199 0.199 0.396 0.396zM3.224 12.324c1.251-1.059 2.882-1.727 4.501-1.727v-0.56c-1.768 0-3.524 0.726-4.862 1.859l0.362 0.427zM7.725 10.597c0.866-0.002 1.699 0.183 2.464 0.568l0.25-0.501c-0.828-0.412-1.788-0.626-2.715-0.627v0.56zM10.507 11.119l5.18-4.881-0.384-0.408-5.179 4.881 0.384 0.408zM15.76 5.946c-0.367-1.101-0.086-2.475 0.818-3.289l-0.375-0.416c-1.088 0.979-1.404 2.593-0.975 3.882l0.531-0.177zM16.588 2.647l0.199-0.199-0.396-0.396-0.199 0.199 0.396 0.396zM16.788 2.447c0.090-0.090 0.211-0.090 0.301 0l0.396-0.396c-0.308-0.309-0.785-0.309-1.093 0l0.396 0.396zM17.086 2.444l9.164 9.462 0.402-0.39-9.164-9.462-0.402 0.39zM26.253 11.91c0.090 0.090 0.090 0.211 0 0.301l0.396 0.396c0.309-0.309 0.309-0.785 0-1.093l-0.396 0.396zM26.253 12.211l-0.199 0.199 0.396 0.396 0.199-0.199-0.396-0.396zM26.053 12.41c-0.908 0.908-2.188 1.102-3.405 0.727l-0.165 0.535c1.372 0.422 2.882 0.218 3.966-0.866l-0.396-0.396zM22.372 13.203l-5.080 4.881 0.388 0.404 5.080-4.881-0.388-0.404zM17.224 18.384c0.292 0.778 0.482 1.626 0.48 2.491h0.56c-0.002-0.927-0.211-1.873-0.516-2.688l-0.524 0.197zM17.704 20.876c0 1.716-0.665 3.234-1.902 4.376l0.38 0.412c1.353-1.249 2.082-2.917 2.082-4.788h-0.56zM15.794 25.259l-0.199 0.199 0.396 0.396 0.199-0.199-0.396-0.396zM15.595 25.459c-0.090 0.090-0.211 0.090-0.301 0l-0.396 0.396c0.309 0.309 0.785 0.309 1.093 0l-0.396-0.396zM15.297 25.462l-5.777-5.976-0.403 0.389 5.777 5.976 0.403-0.389zM9.125 19.478l-7.072 6.773 0.387 0.404 7.072-6.773-0.387-0.404zM1.996 26.328c-0.043 0.086-0.077 0.131-0.097 0.151s-0.002-0.007 0.049-0.007v0.56c0.15 0 0.267-0.076 0.347-0.157 0.068-0.070 0.144-0.182 0.202-0.297l-0.501-0.25zM3.742 13.105l11.753 11.753 0.396-0.396-11.753-11.753-0.396 0.396zM15.901 24.848c0.938-1.042 1.566-2.502 1.566-3.972h-0.56c0 1.318-0.567 2.648-1.422 3.598l0.416 0.375zM17.467 20.876c-0.006-1.55-0.642-3.040-1.667-4.173l-0.414 0.377c0.968 1.059 1.527 2.358 1.521 3.796h0.56zM15.792 16.693l-3.785-3.785-0.396 0.396 3.785 3.785 0.396-0.396zM12.007 12.908c-1.154-1.154-2.623-1.676-4.182-1.676v0.56c1.429 0 2.749 0.475 3.786 1.512l0.396-0.396zM7.843 11.233c-1.58-0.105-3.047 0.526-4.091 1.466l0.375 0.416c0.948-0.854 2.271-1.417 3.679-1.323l0.037-0.559zM15.993 16.392c0.285 0.284 0.572 0.667 0.87 1.066l0.448-0.336c-0.299-0.398-0.61-0.812-0.922-1.126l-0.396 0.396zM17.286 17.488l4.582-4.582-0.396-0.396-4.582 4.582 0.396 0.396zM21.868 12.51c-0.070-0.068-0.167-0.135-0.242-0.184s-0.127-0.083-0.157-0.114l-0.396 0.396c0.070 0.068 0.167 0.135 0.242 0.184s0.127 0.083 0.157 0.114l0.396-0.396zM21.469 12.211l-5.080-5.080-0.396 0.396 5.080 5.080 0.396-0.396zM16.389 7.131c-0.031-0.029-0.065-0.082-0.114-0.157s-0.116-0.172-0.184-0.242l-0.396 0.396c0.031 0.029 0.065 0.082 0.114 0.157s0.116 0.172 0.184 0.242l0.396-0.396zM15.697 6.731l-4.681 4.582 0.392 0.4 4.681-4.582-0.392-0.4zM11.043 11.737c0.398 0.299 0.781 0.585 1.066 0.87l0.396-0.396c-0.313-0.312-0.727-0.624-1.126-0.922l-0.336 0.448zM12.111 12.61l3.885 3.785 0.391-0.401-3.885-3.785-0.391 0.401zM16.471 3.071c-0.875 1.094-0.889 2.75 0.12 3.759l0.396-0.396c-0.783-0.783-0.798-2.115-0.079-3.014l-0.437-0.35zM16.591 6.83l5.080 5.080 0.396-0.396-5.080-5.080-0.396 0.396zM21.671 11.91c0.997 0.996 2.66 1.111 3.772 0.11l-0.375-0.416c-0.88 0.792-2.205 0.707-3.001-0.089l-0.396 0.396zM25.453 11.613l-8.566-8.566-0.396 0.396 8.566 8.566 0.396-0.396z"></path>
</svg>
