<!-- Generated by IcoMoon.io -->
<svg version="1.1" xmlns="http://www.w3.org/2000/svg" width="28" height="28" viewBox="0 0 28 28">
<title>icon-high</title>
<path fill="#fff" d="M25.407 17.63h-4.148c-0.207 0-0.415 0.207-0.519 0.415l-0.933-0.415c-0.519-0.415-0.933-1.037-1.037-1.659l-1.556-9.23c0-0.207-0.207-0.415-0.519-0.415-1.141 0-2.178 0.622-2.8 1.556-0.519-1.037-1.452-1.659-2.696-1.659-0.207 0-0.415 0.207-0.519 0.415l-1.556 9.23c-0.104 0.622-0.519 1.244-1.037 1.659l-0.83 0.519c-0.104-0.207-0.311-0.415-0.519-0.415h-4.148c-0.311 0-0.519 0.207-0.519 0.519v8.296c0 0.207 0.104 0.311 0.207 0.415s0.207 0.104 0.311 0.104h0.104l3.526-1.037c0.519-0.104 0.83-0.519 0.933-1.037h1.244c2.904 0 4.667-0.933 5.496-2.8 0.83 1.867 2.593 2.8 5.496 2.8h1.348c0.104 0.519 0.415 0.933 0.933 1.037l3.526 1.037h0.104c0.104 0 0.207 0 0.311-0.104s0.207-0.207 0.207-0.415v-8.296c0.104-0.311-0.104-0.519-0.415-0.519zM6.222 24.578c0 0.207-0.104 0.311-0.207 0.311l-2.904 0.83v-7.052h3.111v5.911zM8.504 23.852h-1.244v-4.667l1.452-0.622c0 0 0.104 0 0.104-0.104 0.726-0.622 1.244-1.452 1.452-2.385l1.452-8.815c1.037 0.207 1.763 1.141 1.763 2.178v9.644c0 3.526-1.348 4.77-4.978 4.77zM14.519 19.185v-9.644c0-1.141 0.83-1.97 1.763-2.178l1.452 8.815c0.104 0.933 0.726 1.763 1.452 2.385 0 0 0.104 0 0.104 0.104l1.452 0.622v4.563h-1.244c-3.63 0-4.978-1.244-4.978-4.667zM24.889 25.719l-2.904-0.83c-0.104 0-0.207-0.104-0.207-0.311v-5.911h3.111v7.052zM14.519 5.185h-1.037v-4.148h1.037v4.148zM8.504 6.844l-2.696-2.489 0.726-0.726 2.696 2.593-0.726 0.622zM19.6 6.844l-0.726-0.726 2.593-2.593 0.726 0.726-2.593 2.593zM17.63 4.667l-0.933-0.519 1.037-2.074 0.933 0.519-1.037 2.074zM10.474 4.667l-1.037-2.074 0.933-0.519 1.037 2.074-0.933 0.519z"></path>
<path fill="#fff" d="M20.741 18.044l-0.084 0.19 0.181 0.080 0.089-0.177-0.186-0.093zM19.807 17.63l-0.13 0.162 0.021 0.017 0.024 0.011 0.084-0.19zM18.77 15.97l0.205-0.034-0-0-0.205 0.034zM17.215 6.741h-0.207v0.017l0.003 0.017 0.205-0.034zM13.896 7.881l-0.186 0.093 0.16 0.32 0.198-0.297-0.173-0.115zM10.681 6.637l-0.186-0.093-0.014 0.028-0.005 0.031 0.205 0.034zM9.126 15.867l-0.205-0.034-0 0 0.205 0.034zM8.089 17.526l0.11 0.176 0.010-0.006 0.009-0.007-0.13-0.162zM7.259 18.044l-0.186 0.093 0.102 0.204 0.193-0.121-0.11-0.176zM2.696 26.963v0.207h0.030l0.029-0.008-0.059-0.199zM6.222 25.926l-0.041-0.203-0.009 0.002-0.009 0.003 0.059 0.199zM7.156 24.889v-0.207h-0.17l-0.033 0.167 0.203 0.041zM13.896 22.089l0.19-0.084-0.19-0.426-0.19 0.426 0.19 0.084zM20.741 24.889l0.203-0.041-0.033-0.167h-0.17v0.207zM21.674 25.926l0.058-0.199-0.009-0.003-0.009-0.002-0.041 0.203zM25.2 26.963l-0.058 0.199 0.029 0.008h0.030v-0.207zM25.822 18.148l-0.197-0.066-0.011 0.032v0.034h0.207zM6.015 24.889v-0.207h-0.029l-0.028 0.008 0.057 0.199zM3.111 25.719h-0.207v0.275l0.264-0.075-0.057-0.199zM3.111 18.667v-0.207h-0.207v0.207h0.207zM6.222 18.667h0.207v-0.207h-0.207v0.207zM7.259 23.852h-0.207v0.207h0.207v-0.207zM7.259 19.185l-0.082-0.191-0.126 0.054v0.137h0.207zM8.711 18.563v-0.207h-0.043l-0.039 0.017 0.082 0.191zM8.815 18.459l-0.135-0.158-0.072 0.062v0.095h0.207zM10.267 16.074l0.203 0.045 0.002-0.011-0.205-0.034zM11.719 7.259l0.041-0.203-0.21-0.042-0.035 0.212 0.205 0.034zM16.281 7.363l0.205-0.034-0.036-0.216-0.214 0.048 0.045 0.202zM17.733 16.178l0.206-0.023-0.002-0.011-0.205 0.034zM19.185 18.563l-0.135 0.158 0.058 0.050h0.077v-0.207zM19.289 18.667h-0.207v0.137l0.126 0.054 0.082-0.191zM20.741 19.289h0.207v-0.137l-0.126-0.054-0.082 0.191zM20.741 23.852v0.207h0.207v-0.207h-0.207zM24.889 25.719l-0.057 0.199 0.264 0.075v-0.275h-0.207zM21.985 24.889l0.057-0.199-0.028-0.008h-0.029v0.207zM21.778 18.667v-0.207h-0.207v0.207h0.207zM24.889 18.667h0.207v-0.207h-0.207v0.207zM14.519 5.185v0.207h0.207v-0.207h-0.207zM13.481 5.185h-0.207v0.207h0.207v-0.207zM13.481 1.037v-0.207h-0.207v0.207h0.207zM14.519 1.037h0.207v-0.207h-0.207v0.207zM8.504 6.844l-0.141 0.152 0.136 0.125 0.14-0.12-0.135-0.157zM5.807 4.356l-0.147-0.147-0.153 0.153 0.159 0.146 0.141-0.152zM6.533 3.63l0.144-0.15-0.147-0.141-0.144 0.144 0.147 0.147zM9.23 6.222l0.135 0.157 0.173-0.149-0.165-0.158-0.144 0.15zM19.6 6.844l-0.147 0.147 0.147 0.147 0.147-0.147-0.147-0.147zM18.874 6.119l-0.147-0.147-0.147 0.147 0.147 0.147 0.147-0.147zM21.467 3.526l0.147-0.147-0.147-0.147-0.147 0.147 0.147 0.147zM22.193 4.252l0.147 0.147 0.147-0.147-0.147-0.147-0.147 0.147zM17.63 4.667l-0.101 0.181 0.189 0.105 0.097-0.194-0.186-0.093zM16.696 4.148l-0.186-0.093-0.089 0.178 0.174 0.096 0.101-0.181zM17.733 2.074l0.101-0.181-0.189-0.105-0.097 0.194 0.186 0.093zM18.667 2.593l0.186 0.093 0.089-0.178-0.174-0.096-0.101 0.181zM10.474 4.667l-0.186 0.093 0.097 0.194 0.189-0.105-0.101-0.181zM9.437 2.593l-0.101-0.181-0.174 0.096 0.089 0.178 0.186-0.093zM10.37 2.074l0.186-0.093-0.097-0.194-0.189 0.105 0.101 0.181zM11.407 4.148l0.101 0.181 0.174-0.096-0.089-0.178-0.186 0.093zM25.407 17.422h-4.148v0.415h4.148v-0.415zM21.259 17.422c-0.172 0-0.322 0.084-0.433 0.18-0.107 0.094-0.21 0.23-0.271 0.35l0.371 0.185c0.043-0.087 0.096-0.158 0.17-0.22 0.070-0.060 0.128-0.080 0.163-0.080v-0.415zM20.825 17.855l-0.933-0.415-0.168 0.379 0.933 0.415 0.168-0.379zM19.937 17.468c-0.487-0.39-0.868-0.97-0.962-1.531l-0.409 0.068c0.114 0.683 0.562 1.347 1.112 1.787l0.259-0.324zM18.975 15.936l-1.556-9.23-0.409 0.069 1.556 9.23 0.409-0.069zM17.422 6.741c0-0.351-0.331-0.622-0.726-0.622v0.415c0.228 0 0.311 0.143 0.311 0.207h0.415zM16.696 6.119c-1.218 0-2.316 0.663-2.973 1.648l0.345 0.23c0.588-0.882 1.564-1.463 2.627-1.463v-0.415zM14.082 7.789c-0.553-1.105-1.556-1.774-2.882-1.774v0.415c1.163 0 2.026 0.576 2.511 1.545l0.371-0.185zM11.2 6.015c-0.172 0-0.322 0.084-0.433 0.18-0.107 0.093-0.21 0.23-0.271 0.35l0.371 0.186c0.043-0.087 0.095-0.158 0.17-0.22 0.070-0.060 0.128-0.080 0.163-0.080v-0.415zM10.477 6.603l-1.556 9.23 0.409 0.069 1.556-9.23-0.409-0.069zM8.921 15.833c-0.094 0.562-0.475 1.142-0.962 1.531l0.259 0.324c0.55-0.44 0.998-1.104 1.112-1.787l-0.409-0.068zM7.979 17.35l-0.83 0.519 0.22 0.352 0.83-0.519-0.22-0.352zM7.445 17.952c-0.061-0.12-0.164-0.256-0.271-0.35-0.111-0.095-0.261-0.18-0.433-0.18v0.415c0.036 0 0.093 0.019 0.163 0.080 0.074 0.062 0.127 0.133 0.17 0.22l0.371-0.185zM6.741 17.422h-4.148v0.415h4.148v-0.415zM2.593 17.422c-0.203 0-0.388 0.068-0.523 0.203s-0.203 0.32-0.203 0.523h0.415c0-0.108 0.035-0.183 0.082-0.229s0.121-0.082 0.229-0.082v-0.415zM1.867 18.148v8.296h0.415v-8.296h-0.415zM1.867 26.444c0 0.299 0.162 0.456 0.268 0.561l0.293-0.293c-0.102-0.102-0.147-0.152-0.147-0.268h-0.415zM2.135 27.006c0.168 0.168 0.351 0.164 0.458 0.164v-0.415c-0.056 0-0.082-0.001-0.105-0.007-0.016-0.004-0.034-0.012-0.059-0.036l-0.293 0.293zM2.593 27.17h0.104v-0.415h-0.104v0.415zM2.755 27.162l3.526-1.037-0.117-0.398-3.526 1.037 0.117 0.398zM6.263 26.129c0.624-0.125 0.981-0.626 1.096-1.2l-0.407-0.081c-0.093 0.463-0.358 0.792-0.771 0.874l0.081 0.407zM7.156 25.096h1.244v-0.415h-1.244v0.415zM8.4 25.096c1.472 0 2.675-0.236 3.621-0.723 0.938-0.486 1.634-1.237 2.065-2.2l-0.379-0.168c-0.398 0.903-0.999 1.552-1.876 2-0.869 0.447-2 0.677-3.431 0.677v0.415zM13.707 22.173c0.431 0.963 1.127 1.714 2.065 2.2 0.946 0.487 2.149 0.723 3.621 0.723v-0.415c-1.432 0-2.563-0.23-3.431-0.677-0.877-0.447-1.477-1.096-1.876-2l-0.379 0.168zM19.393 25.096h1.348v-0.415h-1.348v0.415zM20.537 24.93c0.115 0.574 0.472 1.075 1.096 1.2l0.081-0.407c-0.413-0.083-0.678-0.411-0.771-0.874l-0.407 0.081zM21.616 26.125l3.526 1.037 0.117-0.398-3.526-1.037-0.117 0.398zM25.2 27.17h0.104v-0.415h-0.104v0.415zM25.304 27.17c0.107 0 0.29 0.004 0.458-0.164l-0.293-0.293c-0.025 0.025-0.043 0.032-0.059 0.036-0.023 0.006-0.050 0.007-0.105 0.007v0.415zM25.761 27.006c0.106-0.106 0.268-0.263 0.268-0.561h-0.415c0 0.116-0.045 0.167-0.147 0.268l0.293 0.293zM26.030 26.444v-8.296h-0.415v8.296h0.415zM26.019 18.214c0.071-0.212 0.042-0.421-0.091-0.576-0.127-0.149-0.322-0.215-0.52-0.215v0.415c0.113 0 0.177 0.037 0.205 0.070 0.022 0.026 0.046 0.076 0.013 0.175l0.393 0.131zM6.015 24.578c0 0.071-0.018 0.101-0.023 0.109-0.005 0.006 0.002-0.005 0.023-0.005v0.415c0.27 0 0.415-0.256 0.415-0.519h-0.415zM5.958 24.689l-2.904 0.83 0.114 0.399 2.904-0.83-0.114-0.399zM3.319 25.719v-7.052h-0.415v7.052h0.415zM3.111 18.874h3.111v-0.415h-3.111v0.415zM6.015 18.667v0.207h0.415v-0.207h-0.415zM6.015 18.874v5.496h0.415v-5.496h-0.415zM6.015 24.37v0.207h0.415v-0.207h-0.415zM8.504 23.644h-1.244v0.415h1.244v-0.415zM7.467 23.852v-4.667h-0.415v4.667h0.415zM7.341 19.376l1.452-0.622-0.163-0.381-1.452 0.622 0.163 0.381zM8.711 18.563c0 0.207 0 0.207 0 0.207s0 0 0 0 0 0 0 0 0.001 0 0.001 0 0.001 0 0.002 0 0.003-0 0.004-0c0.002-0 0.007-0 0.011-0.001 0.006-0 0.019-0.002 0.031-0.004 0.018-0.003 0.061-0.015 0.094-0.030 0.086-0.043 0.166-0.135 0.166-0.276h-0.415c0-0.010 0.003-0.032 0.019-0.055 0.015-0.022 0.033-0.034 0.044-0.040s0.019-0.007 0.023-0.008c-0.002 0 0.008-0.001 0.008-0.001-0.001 0 0.005-0 0.005-0s0.003-0 0.003-0c-0 0 0.002 0 0.001 0s0.001 0 0.001 0c-0 0 0 0 0 0s0 0 0 0 0 0 0 0.207zM8.95 18.617c0.748-0.645 1.301-1.531 1.519-2.498l-0.405-0.090c-0.197 0.9-0.681 1.673-1.384 2.273l0.27 0.315zM10.471 16.108l1.452-8.815-0.409-0.067-1.452 8.815 0.409 0.067zM11.678 7.463c0.936 0.187 1.596 1.032 1.596 1.974h0.415c0-1.132-0.792-2.154-1.93-2.381l-0.081 0.407zM13.274 9.437v9.644h0.415v-9.644h-0.415zM13.274 19.081c0 1.745-0.335 2.865-1.063 3.557-0.731 0.695-1.906 1.006-3.707 1.006v0.415c1.828 0 3.142-0.311 3.993-1.12 0.854-0.812 1.192-2.077 1.192-3.858h-0.415zM14.726 19.185v-9.644h-0.415v9.644h0.415zM14.726 9.541c0-1.031 0.75-1.786 1.601-1.975l-0.090-0.405c-1.016 0.226-1.925 1.13-1.925 2.38h0.415zM16.077 7.397l1.452 8.815 0.409-0.067-1.452-8.815-0.409 0.067zM17.527 16.201c0.112 1.008 0.779 1.882 1.523 2.52l0.27-0.315c-0.708-0.607-1.285-1.392-1.381-2.251l-0.412 0.046zM19.185 18.563c0 0.207-0 0.207-0 0.207s-0 0-0 0-0.001 0-0 0-0.001 0-0.001 0-0.002 0-0.001 0c0 0-0.004-0-0.003-0s-0.006-0-0.005-0c0 0-0.009-0.001-0.008-0.001-0.004-0.001-0.012-0.002-0.023-0.008s-0.030-0.018-0.044-0.040c-0.015-0.023-0.019-0.045-0.019-0.055h0.415c0-0.141-0.081-0.233-0.167-0.276-0.034-0.015-0.076-0.027-0.094-0.030-0.012-0.002-0.025-0.003-0.031-0.004-0.004-0-0.009-0.001-0.011-0.001s-0.004-0-0.004-0c-0.001 0-0.002 0-0.002 0s-0.001 0-0.001 0-0 0-0 0-0 0-0 0-0 0-0 0.207zM19.207 18.857l1.452 0.622 0.163-0.381-1.452-0.622-0.163 0.381zM20.533 19.289v4.563h0.415v-4.563h-0.415zM20.741 23.644h-1.244v0.415h1.244v-0.415zM19.496 23.644c-1.801 0-2.977-0.311-3.708-0.994-0.727-0.68-1.062-1.773-1.062-3.465h-0.415c0 1.73 0.339 2.97 1.194 3.768 0.85 0.795 2.163 1.106 3.992 1.106v-0.415zM24.946 25.519l-2.904-0.83-0.114 0.399 2.904 0.83 0.114-0.399zM21.985 24.681c0.021 0 0.028 0.012 0.023 0.005-0.006-0.008-0.023-0.038-0.023-0.109h-0.415c0 0.263 0.145 0.519 0.415 0.519v-0.415zM21.985 24.578v-0.207h-0.415v0.207h0.415zM21.985 24.37v-5.496h-0.415v5.496h0.415zM21.985 18.874v-0.207h-0.415v0.207h0.415zM21.778 18.874h3.111v-0.415h-3.111v0.415zM24.681 18.667v7.052h0.415v-7.052h-0.415zM14.519 4.978h-1.037v0.415h1.037v-0.415zM13.689 5.185v-4.148h-0.415v4.148h0.415zM13.481 1.244h1.037v-0.415h-1.037v0.415zM14.311 1.037v4.148h0.415v-4.148h-0.415zM8.644 6.692l-2.696-2.489-0.281 0.305 2.696 2.489 0.281-0.305zM5.954 4.502l0.726-0.726-0.293-0.293-0.726 0.726 0.293 0.293zM6.39 3.779l2.696 2.593 0.288-0.299-2.696-2.593-0.288 0.299zM9.095 6.065l-0.726 0.622 0.27 0.315 0.726-0.622-0.27-0.315zM19.747 6.698l-0.726-0.726-0.293 0.293 0.726 0.726 0.293-0.293zM19.021 6.265l2.593-2.593-0.293-0.293-2.593 2.593 0.293 0.293zM21.32 3.673l0.726 0.726 0.293-0.293-0.726-0.726-0.293 0.293zM22.046 4.105l-2.593 2.593 0.293 0.293 2.593-2.593-0.293-0.293zM17.73 4.485l-0.933-0.519-0.201 0.363 0.933 0.519 0.201-0.363zM16.882 4.241l1.037-2.074-0.371-0.185-1.037 2.074 0.371 0.185zM17.633 2.255l0.933 0.519 0.201-0.363-0.933-0.519-0.201 0.363zM18.481 2.5l-1.037 2.074 0.371 0.186 1.037-2.074-0.371-0.186zM10.66 4.574l-1.037-2.074-0.371 0.186 1.037 2.074 0.371-0.186zM9.538 2.774l0.933-0.519-0.201-0.363-0.933 0.519 0.201 0.363zM10.185 2.167l1.037 2.074 0.371-0.185-1.037-2.074-0.371 0.186zM11.307 3.967l-0.933 0.519 0.201 0.363 0.933-0.519-0.201-0.363z"></path>
</svg>
