<!-- Generated by IcoMoon.io -->
<svg version="1.1" xmlns="http://www.w3.org/2000/svg" width="28" height="28" viewBox="0 0 28 28">
<title>icon-linkedin</title>
<path fill="#e55570" d="M28 14c0 7.732-6.268 14-14 14s-14-6.268-14-14c0-7.732 6.268-14 14-14s14 6.268 14 14z"></path>
<path fill="#fff" d="M10.948 18.988v-7.358h-2.289v7.358h2.289zM9.816 10.62c0.345 0 0.664-0.123 0.935-0.394 0.246-0.246 0.394-0.566 0.394-0.935 0-0.345-0.148-0.664-0.394-0.935-0.271-0.246-0.591-0.394-0.935-0.394-0.369 0-0.689 0.148-0.935 0.394-0.271 0.271-0.394 0.591-0.394 0.935 0 0.369 0.123 0.689 0.394 0.935 0.246 0.271 0.566 0.394 0.935 0.394zM19.512 18.988v-4.036c0-1.132-0.172-1.969-0.492-2.51-0.443-0.664-1.181-1.009-2.239-1.009-0.541 0-0.984 0.148-1.378 0.394-0.369 0.221-0.64 0.492-0.787 0.812h-0.025v-1.009h-2.19v7.358h2.264v-3.642c0-0.566 0.074-1.009 0.246-1.304 0.197-0.394 0.566-0.591 1.107-0.591 0.517 0 0.861 0.221 1.058 0.664 0.098 0.271 0.148 0.689 0.148 1.28v3.593h2.289z"></path>
</svg>
