<!-- Generated by IcoMoon.io -->
<svg version="1.1" xmlns="http://www.w3.org/2000/svg" width="28" height="28" viewBox="0 0 28 28">
<title>icon-gmail</title>
<path fill="#e55570" d="M28 14c0 7.732-6.268 14-14 14s-14-6.268-14-14c0-7.732 6.268-14 14-14s14 6.268 14 14z"></path>
<path fill="#fff" d="M20.3 12.392c-0.211 0.232-0.45 0.436-0.703 0.612-1.174 0.795-2.355 1.596-3.502 2.426-0.591 0.436-1.322 0.97-2.088 0.97h-0.014c-0.766 0-1.498-0.534-2.088-0.97-1.146-0.837-2.327-1.631-3.495-2.426-0.26-0.176-0.499-0.38-0.71-0.612v5.583c0 0.619 0.506 1.125 1.125 1.125h10.35c0.619 0 1.125-0.506 1.125-1.125v-5.583zM20.3 10.325c0-0.619-0.513-1.125-1.125-1.125h-10.35c-0.752 0-1.125 0.591-1.125 1.28 0 0.64 0.71 1.434 1.209 1.772 1.090 0.759 2.194 1.519 3.284 2.285 0.457 0.316 1.23 0.963 1.8 0.963h0.014c0.57 0 1.343-0.647 1.8-0.963 1.090-0.766 2.194-1.526 3.291-2.285 0.619-0.429 1.202-1.139 1.202-1.927z"></path>
</svg>
