<!-- Generated by IcoMoon.io -->
<svg version="1.1" xmlns="http://www.w3.org/2000/svg" width="28" height="28" viewBox="0 0 28 28">
<title>icon-facebook</title>
<path fill="#e55570" d="M28 14c0 7.732-6.268 14-14 14s-14-6.268-14-14c0-7.732 6.268-14 14-14s14 6.268 14 14z"></path>
<path fill="#fff" d="M12.646 19.775h2.313v-5.636h1.796l0.295-2.239h-2.092v-1.55c0-0.345 0.049-0.615 0.197-0.787 0.148-0.197 0.468-0.295 0.911-0.295h1.181v-1.993c-0.443-0.049-1.034-0.098-1.723-0.098-0.886 0-1.575 0.271-2.092 0.788-0.541 0.517-0.787 1.23-0.787 2.166v1.772h-1.895v2.239h1.895v5.636z"></path>
</svg>
