<!-- Generated by IcoMoon.io -->
<svg version="1.1" xmlns="http://www.w3.org/2000/svg" width="28" height="28" viewBox="0 0 28 28">
<title>icon-stack-layers</title>
<path fill="#fff" opacity="0.8" d="M14 26.963c-0.415 0-0.83-0.104-1.141-0.311l-11.2-6.741c-0.415-0.207-0.622-0.622-0.622-0.933 0-0.415 0.207-0.726 0.622-0.933l2.385-1.452-2.385-1.452c-0.415-0.311-0.622-0.622-0.622-1.037s0.207-0.726 0.622-0.933l2.385-1.452-2.385-1.556c-0.415-0.207-0.622-0.519-0.622-0.933 0-0.311 0.207-0.726 0.622-0.933l11.304-6.948c0.622-0.415 1.556-0.415 2.178 0l11.2 6.948c0.415 0.207 0.622 0.622 0.622 0.933 0 0.415-0.207 0.726-0.622 0.933l-2.385 1.452 2.385 1.452c0.415 0.207 0.622 0.622 0.622 0.933 0 0.415-0.207 0.726-0.622 0.933l-2.385 1.452 2.385 1.452c0.415 0.207 0.622 0.622 0.622 0.933 0 0.415-0.207 0.726-0.622 0.933l-11.2 6.741c-0.311 0.415-0.726 0.519-1.141 0.519zM2.074 18.978l11.304 6.844c0.311 0.207 0.83 0.207 1.141 0l11.2-6.741c0.104 0 0.104-0.104 0.104-0.104s0 0-0.104-0.104l-2.904-1.763-7.674 4.667c-0.622 0.415-1.556 0.415-2.281 0l-7.881-4.77-2.904 1.97c0-0.104 0-0.104 0 0zM2.074 14.104l11.304 6.844c0.311 0.207 0.83 0.207 1.141 0l11.2-6.741c0.104 0 0.104-0.104 0.104-0.104s0 0-0.104-0.104l-2.904-1.763-7.881 4.77c-0.622 0.415-1.556 0.415-2.178 0l-7.881-4.77-2.8 1.867c0-0.104 0 0 0 0zM2.074 9.23c0 0 0 0.104 0 0l11.304 6.844c0.311 0.207 0.83 0.207 1.141 0l11.304-6.741c0.104 0 0.104-0.104 0.104-0.104s0 0-0.104-0.104l-11.304-6.948c-0.207-0.104-0.83-0.104-1.037 0l-11.407 7.052z"></path>
<path fill="#fff" opacity="0.8" d="M12.859 26.652l0.115-0.173-0.008-0.005-0.107 0.178zM1.659 19.911l0.107-0.178-0.007-0.004-0.007-0.004-0.093 0.186zM1.659 18.044l0.093 0.186 0.008-0.004 0.007-0.005-0.108-0.177zM4.044 16.593l0.108 0.177 0.291-0.177-0.291-0.177-0.108 0.177zM1.659 15.141l-0.124 0.166 0.008 0.006 0.009 0.005 0.108-0.177zM1.659 13.17l0.093 0.186 0.008-0.004 0.007-0.005-0.108-0.177zM4.044 11.719l0.108 0.177 0.281-0.171-0.276-0.18-0.113 0.174zM1.659 10.163l0.113-0.174-0.010-0.006-0.011-0.005-0.093 0.186zM1.659 8.296l0.093 0.186 0.008-0.004 0.008-0.005-0.109-0.177zM12.963 1.348l0.109 0.177 0.006-0.004-0.115-0.173zM15.141 1.348l-0.115 0.173 0.006 0.004 0.109-0.176zM26.341 8.296l-0.109 0.176 0.008 0.005 0.009 0.004 0.093-0.186zM26.341 10.163l-0.093-0.186-0.008 0.004-0.007 0.004 0.108 0.177zM23.956 11.615l-0.108-0.177-0.291 0.177 0.291 0.177 0.108-0.177zM26.341 13.067l-0.108 0.177 0.007 0.005 0.008 0.004 0.093-0.186zM26.341 14.933l-0.093-0.186-0.008 0.004-0.007 0.005 0.108 0.177zM23.956 16.385l-0.108-0.177-0.291 0.177 0.291 0.177 0.108-0.177zM26.341 17.837l-0.108 0.177 0.007 0.005 0.008 0.004 0.093-0.186zM26.341 19.704l-0.093-0.186-0.007 0.004-0.007 0.004 0.107 0.178zM15.141 26.444l-0.107-0.178-0.035 0.021-0.024 0.032 0.166 0.124zM2.074 18.978h-0.207v0.117l0.1 0.061 0.107-0.177zM13.378 25.822l0.115-0.173-0.008-0.005-0.107 0.177zM14.519 25.822l-0.107-0.178-0.008 0.005 0.115 0.173zM25.719 19.081v-0.207h-0.058l-0.049 0.030 0.107 0.178zM25.822 18.978h0.207l-0.409-0.050 0.201 0.050zM25.719 18.874l0.147-0.147-0.018-0.018-0.021-0.013-0.108 0.177zM22.815 17.111l0.108-0.177-0.108-0.065-0.108 0.065 0.108 0.177zM15.141 21.778l-0.108-0.177-0.007 0.005 0.115 0.173zM12.859 21.778l-0.107 0.178 0.005 0.002 0.103-0.18zM4.978 17.007l0.107-0.177-0.114-0.069-0.11 0.075 0.116 0.172zM2.074 14.104h-0.207v0.117l0.1 0.061 0.107-0.177zM13.378 20.948l0.115-0.173-0.008-0.005-0.107 0.177zM14.519 20.948l-0.107-0.178-0.008 0.005 0.115 0.173zM25.719 14.207v-0.207h-0.058l-0.049 0.030 0.107 0.178zM25.822 14.104h0.207v-0.086l-0.061-0.061-0.147 0.147zM25.719 14l0.147-0.147-0.018-0.018-0.021-0.013-0.108 0.177zM22.815 12.237l0.108-0.177-0.107-0.065-0.108 0.065 0.107 0.177zM14.933 17.007l-0.108-0.178-0.007 0.005 0.115 0.173zM12.756 17.007l0.115-0.173-0.008-0.005-0.107 0.177zM4.874 12.237l0.107-0.177-0.113-0.068-0.11 0.073 0.115 0.173zM2.074 9.23l-0.109-0.176-0.098 0.061v0.116h0.207zM2.074 9.23l0.107-0.177-0.315-0.191v0.368h0.207zM13.378 16.074l0.115-0.173-0.008-0.005-0.107 0.177zM14.519 16.074l-0.106-0.178-0.009 0.006 0.115 0.173zM25.822 9.333v-0.207h-0.057l-0.049 0.029 0.106 0.178zM25.926 9.23h0.207v-0.267l-0.259 0.066 0.051 0.201zM25.822 9.126l0.147-0.147-0.017-0.017-0.021-0.013-0.109 0.177zM14.519 2.178l0.109-0.177-0.008-0.005-0.008-0.004-0.093 0.186zM13.481 2.178l-0.093-0.186-0.008 0.004-0.008 0.005 0.109 0.176zM14 26.756c-0.384 0-0.756-0.097-1.026-0.276l-0.23 0.345c0.353 0.235 0.81 0.346 1.256 0.346v-0.415zM12.966 26.474l-11.2-6.741-0.214 0.355 11.2 6.741 0.214-0.355zM1.752 19.726c-0.344-0.172-0.508-0.515-0.508-0.748h-0.415c0 0.389 0.251 0.876 0.737 1.119l0.185-0.371zM1.244 18.978c0-0.325 0.153-0.57 0.508-0.748l-0.185-0.371c-0.475 0.237-0.737 0.615-0.737 1.119h0.415zM1.767 18.222l2.385-1.452-0.216-0.354-2.385 1.452 0.216 0.354zM4.152 16.415l-2.385-1.452-0.216 0.354 2.385 1.452 0.216-0.354zM1.784 14.975c-0.386-0.29-0.539-0.546-0.539-0.871h-0.415c0 0.505 0.262 0.87 0.705 1.203l0.249-0.332zM1.244 14.104c0-0.325 0.153-0.57 0.508-0.748l-0.185-0.371c-0.475 0.237-0.737 0.615-0.737 1.119h0.415zM1.767 13.347l2.385-1.452-0.216-0.354-2.385 1.452 0.216 0.354zM4.158 11.545l-2.385-1.556-0.227 0.347 2.385 1.556 0.227-0.347zM1.752 9.977c-0.355-0.177-0.508-0.422-0.508-0.748h-0.415c0 0.504 0.262 0.881 0.737 1.119l0.185-0.371zM1.244 9.23c0-0.233 0.164-0.576 0.508-0.748l-0.185-0.371c-0.486 0.243-0.737 0.73-0.737 1.119h0.415zM1.768 8.473l11.304-6.948-0.217-0.353-11.304 6.948 0.217 0.353zM13.078 1.521c0.553-0.368 1.395-0.368 1.948 0l0.23-0.345c-0.692-0.461-1.716-0.461-2.408 0l0.23 0.345zM15.031 1.524l11.2 6.948 0.219-0.352-11.2-6.948-0.219 0.352zM26.248 8.482c0.344 0.172 0.508 0.515 0.508 0.748h0.415c0-0.389-0.251-0.876-0.737-1.119l-0.185 0.371zM26.756 9.23c0 0.325-0.153 0.57-0.508 0.748l0.185 0.371c0.475-0.237 0.737-0.615 0.737-1.119h-0.415zM26.233 9.986l-2.385 1.452 0.216 0.354 2.385-1.452-0.216-0.354zM23.848 11.792l2.385 1.452 0.216-0.354-2.385-1.452-0.216 0.354zM26.248 13.252c0.344 0.172 0.508 0.515 0.508 0.748h0.415c0-0.389-0.251-0.876-0.737-1.119l-0.185 0.371zM26.756 14c0 0.325-0.153 0.57-0.508 0.748l0.185 0.371c0.475-0.237 0.737-0.615 0.737-1.119h-0.415zM26.233 14.756l-2.385 1.452 0.216 0.354 2.385-1.452-0.216-0.354zM23.848 16.562l2.385 1.452 0.216-0.354-2.385-1.452-0.216 0.354zM26.248 18.023c0.344 0.172 0.508 0.515 0.508 0.748h0.415c0-0.389-0.251-0.876-0.737-1.119l-0.185 0.371zM26.756 18.77c0 0.325-0.153 0.57-0.508 0.748l0.185 0.371c0.475-0.237 0.737-0.615 0.737-1.119h-0.415zM26.234 19.526l-11.2 6.741 0.214 0.355 11.2-6.741-0.214-0.355zM14.975 26.32c-0.258 0.344-0.597 0.436-0.975 0.436v0.415c0.452 0 0.942-0.116 1.307-0.601l-0.332-0.249zM1.967 19.155l11.304 6.844 0.215-0.355-11.304-6.844-0.215 0.355zM13.263 25.995c0.381 0.254 0.99 0.254 1.371 0l-0.23-0.345c-0.242 0.161-0.669 0.161-0.911 0l-0.23 0.345zM14.625 26l11.2-6.741-0.214-0.355-11.2 6.741 0.214 0.355zM25.719 19.289c0.141 0 0.233-0.081 0.276-0.167 0.015-0.034 0.027-0.076 0.030-0.094 0.002-0.012 0.003-0.025 0.004-0.031 0-0.004 0.001-0.009 0.001-0.011s0-0.004 0-0.004c0-0.001 0-0.002 0-0.002s0-0.001 0-0.001 0-0 0-0 0-0 0-0 0-0-0.207-0-0.207-0-0.207-0 0-0 0-0 0-0.001 0-0 0-0.001 0-0.001 0-0.002 0-0.001c0 0 0-0.004 0-0.003s0-0.006 0-0.005c0 0 0.001-0.009 0.001-0.008 0.001-0.004 0.002-0.012 0.008-0.023s0.018-0.030 0.040-0.044c0.023-0.015 0.045-0.019 0.055-0.019v0.415zM25.822 18.978c-0.201-0.050-0.056-0.2 0.145-0.148 0 0 0.001 0.001 0.001 0.001s0.001 0 0 0 0 0 0 0 0 0 0 0 0 0 0 0-0 0-0-0-0.001-0.001-0.001-0.001-0.005-0.005-0.011-0.011c-0.013-0.013-0.039-0.039-0.091-0.091l-0.293 0.293c0.052 0.052 0.078 0.078 0.091 0.091 0.006 0.007 0.010 0.010 0.011 0.011s0.001 0.001 0.001 0.001 0 0 0 0 0 0 0 0 0 0 0 0 0 0 0 0 0 0 0 0 0.001 0.001 0.001 0.001c0.202 0.051 0.346-0.098 0.145-0.148zM25.826 18.697l-2.904-1.763-0.215 0.355 2.904 1.763 0.215-0.355zM22.707 16.934l-7.674 4.667 0.215 0.354 7.674-4.667-0.215-0.354zM15.026 21.605c-0.548 0.365-1.396 0.374-2.064-0.007l-0.206 0.36c0.784 0.448 1.803 0.457 2.499-0.007l-0.23-0.345zM12.967 21.6l-7.882-4.77-0.215 0.355 7.881 4.77 0.215-0.355zM4.861 16.836l-2.904 1.97 0.233 0.343 2.904-1.97-0.233-0.343zM2.281 18.978c0-0.026 0-0.045 0-0.058 0-0.006 0-0.011 0-0.015 0-0.002 0-0.003 0-0.004s0-0.001 0-0.001 0-0 0-0 0-0 0-0 0 0 0 0 0 0 0 0 0 0-0.207 0-0.207 0-0.207 0 0 0 0 0 0 0 0 0 0 0 0 0 0 0 0 0 0 0.001 0 0.001 0 0.002 0 0.004 0 0.008 0 0.015c0 0.013 0 0.032 0 0.058h0.415c0-0.026 0-0.045 0-0.058 0-0.006 0-0.011 0-0.015 0-0.002 0-0.003 0-0.004s0-0.001 0-0.001 0-0 0-0 0-0 0-0 0 0 0 0 0 0 0 0 0 0-0.207 0-0.207 0-0.207 0 0 0 0 0 0 0 0 0 0 0 0 0 0 0 0 0 0 0.001 0 0.001 0 0.002 0 0.004 0 0.008 0 0.015c0 0.013 0 0.032 0 0.058h0.415zM1.967 14.281l11.304 6.844 0.215-0.355-11.304-6.844-0.215 0.355zM13.263 21.121c0.381 0.254 0.99 0.254 1.371 0l-0.23-0.345c-0.242 0.161-0.669 0.161-0.911 0l-0.23 0.345zM14.625 21.126l11.2-6.741-0.214-0.355-11.2 6.741 0.214 0.355zM25.719 14.415c0.141 0 0.233-0.081 0.276-0.167 0.015-0.034 0.027-0.076 0.030-0.094 0.002-0.012 0.003-0.025 0.004-0.031 0-0.004 0.001-0.009 0.001-0.011s0-0.004 0-0.004c0-0.001 0-0.002 0-0.002s0-0.001 0-0.001 0-0 0-0 0-0 0-0 0-0-0.207-0-0.207-0-0.207-0 0-0 0-0 0-0.001 0-0 0-0.001 0-0.001 0-0.002 0-0.001c0 0 0-0.004 0-0.003s0-0.006 0-0.005c0 0 0.001-0.009 0.001-0.008 0.001-0.004 0.002-0.012 0.008-0.023s0.018-0.030 0.040-0.044c0.023-0.015 0.045-0.019 0.055-0.019v0.415zM25.822 14.104c0.147-0.147 0.147-0.147 0.147-0.147s0 0 0 0 0 0 0 0 0 0 0 0 0 0 0 0-0-0-0-0-0.001-0.001-0.001-0.001-0.005-0.005-0.011-0.011c-0.013-0.013-0.039-0.039-0.091-0.091l-0.293 0.293c0.052 0.052 0.078 0.078 0.091 0.091 0.006 0.007 0.010 0.010 0.011 0.011s0.001 0.001 0.001 0.001 0 0 0 0 0 0 0 0 0 0 0 0 0 0 0.147-0.147zM25.826 13.823l-2.904-1.763-0.215 0.355 2.904 1.763 0.215-0.355zM22.707 12.060l-7.881 4.77 0.215 0.355 7.881-4.77-0.215-0.355zM14.818 16.835c-0.553 0.368-1.395 0.368-1.948 0l-0.23 0.345c0.692 0.461 1.716 0.461 2.408 0l-0.23-0.345zM12.863 16.83l-7.882-4.77-0.215 0.355 7.881 4.77 0.215-0.355zM4.759 12.064l-2.8 1.867 0.23 0.345 2.8-1.867-0.23-0.345zM2.281 14.104c0-0.026 0-0.039 0-0.044 0-0.001 0-0.002 0-0.002s0-0 0-0 0 0 0 0-0.207 0-0.415 0c0 0 0 0 0 0s0 0 0 0 0 0 0 0.001 0 0.003 0 0.007 0 0.016 0 0.024c0 0.004 0 0.008 0 0.010 0 0.001 0 0.002 0 0.003s0 0.001 0 0.001 0 0 0 0 0 0 0 0 0 0 0 0 0 0 0 0 0 0 0.207 0 0.207 0 0.207 0 0 0 0 0 0 0 0 0 0 0 0-0 0-0 0-0 0-0 0-0.001 0-0.002 0-0.003 0-0.006 0-0.010 0-0.018 0-0.024c0-0.003 0-0.006 0-0.007s0-0 0-0.001 0 0 0 0 0 0 0 0c-0.207 0-0.415 0-0.415 0s0 0 0 0 0 0 0 0 0 0.001 0 0.002c0 0.005 0 0.018 0 0.044h0.415zM2.074 9.23c-0.207 0-0.207 0-0.207 0s0 0 0 0 0 0 0 0 0 0 0 0 0 0 0 0 0 0 0 0.001 0 0.002 0 0.003 0 0.006 0 0.010 0 0.018 0 0.024c0 0.003 0 0.006 0 0.007s0 0 0 0 0 0 0 0 0 0 0 0c0.207 0 0.415 0 0.415 0s0 0 0 0 0-0 0-0 0-0.001 0-0.002c0-0.005 0-0.018 0-0.044h-0.415c0 0.026 0 0.039 0 0.044 0 0.001 0 0.002 0 0.002s0 0 0 0 0 0 0 0 0.207 0 0.415 0c0 0 0 0 0 0s0 0 0-0 0-0 0-0 0-0.003 0-0.007 0-0.016 0-0.024c0-0.004 0-0.008 0-0.010 0-0.001 0-0.002 0-0.003s0-0.001 0-0.001 0-0 0-0 0-0 0-0 0 0 0-0 0 0 0 0 0 0-0.207 0zM1.967 9.407l11.304 6.844 0.215-0.355-11.304-6.844-0.215 0.355zM13.263 16.247c0.381 0.254 0.99 0.254 1.371 0l-0.23-0.345c-0.242 0.161-0.669 0.161-0.911 0l-0.23 0.345zM14.625 16.252l11.304-6.741-0.212-0.356-11.304 6.741 0.212 0.356zM25.822 9.541c0.141 0 0.233-0.081 0.276-0.166 0.015-0.034 0.027-0.076 0.030-0.094 0.002-0.012 0.003-0.025 0.004-0.031 0-0.004 0.001-0.009 0.001-0.011s0-0.004 0-0.004c0-0.001 0-0.002 0-0.002s0-0.001 0-0.001 0-0 0-0 0-0 0-0 0-0-0.207-0-0.207-0-0.207-0 0-0 0-0 0-0.001 0-0 0-0.001 0-0.001 0-0.002 0-0.001c0 0 0-0.004 0-0.003s0-0.006 0-0.005c0 0 0.001-0.009 0.001-0.008 0.001-0.004 0.002-0.012 0.008-0.023s0.018-0.030 0.040-0.044c0.023-0.015 0.045-0.019 0.055-0.019v0.415zM25.926 9.23c-0.051-0.201 0.055-0.2 0.146-0.147 0 0 0 0 0 0s0 0 0 0 0 0 0 0 0 0 0 0 0 0 0 0-0-0-0-0-0.001-0.001-0.001-0.001-0.005-0.005-0.011-0.011c-0.013-0.013-0.039-0.039-0.091-0.091l-0.293 0.293c0.052 0.052 0.078 0.078 0.091 0.091 0.006 0.006 0.010 0.010 0.011 0.011s0.001 0.001 0.001 0.001 0 0 0 0 0 0 0 0 0 0 0 0 0 0 0 0 0 0 0 0 0 0 0 0c0.092 0.053 0.198 0.054 0.146-0.147zM25.931 8.949l-11.304-6.948-0.217 0.353 11.304 6.948 0.217-0.353zM14.611 1.992c-0.151-0.075-0.402-0.1-0.611-0.1s-0.46 0.024-0.611 0.1l0.185 0.371c0.057-0.028 0.22-0.056 0.426-0.056s0.369 0.028 0.426 0.056l0.185-0.371zM13.372 2.001l-11.407 7.052 0.218 0.353 11.407-7.052-0.218-0.353z"></path>
</svg>
