<!-- Generated by IcoMoon.io -->
<svg version="1.1" xmlns="http://www.w3.org/2000/svg" width="28" height="28" viewBox="0 0 28 28">
<title>icon-pinterest</title>
<path fill="#e55570" d="M28 14c0 7.732-6.268 14-14 14s-14-6.268-14-14c0-7.732 6.268-14 14-14s14 6.268 14 14z"></path>
<path fill="#fff" d="M14.295 8.023c0.763 0.025 1.477 0.197 2.166 0.541s1.23 0.787 1.624 1.378c0.418 0.64 0.64 1.378 0.64 2.166s-0.148 1.55-0.394 2.239c-0.295 0.787-0.714 1.378-1.255 1.821-0.615 0.492-1.329 0.738-2.141 0.738-0.345 0-0.664-0.074-0.984-0.221-0.345-0.148-0.566-0.369-0.714-0.664l-0.197 0.788c-0.221 0.861-0.394 1.452-0.517 1.772-0.197 0.443-0.566 1.009-1.058 1.698l-0.098 0.049-0.074-0.074-0.025-0.369c-0.049-0.443-0.074-0.787-0.074-1.034 0-0.492 0.074-1.132 0.246-1.92 0.098-0.443 0.246-1.132 0.492-2.043l0.295-1.181c-0.172-0.295-0.246-0.714-0.246-1.23 0-0.468 0.123-0.861 0.369-1.181 0.197-0.246 0.468-0.418 0.787-0.492 0.295-0.049 0.566 0 0.812 0.172 0.221 0.197 0.345 0.468 0.345 0.861 0 0.221-0.049 0.468-0.098 0.714-0.049 0.148-0.123 0.394-0.221 0.689-0.123 0.32-0.197 0.541-0.221 0.689-0.074 0.271-0.098 0.492-0.098 0.689 0 0.32 0.098 0.591 0.32 0.787s0.492 0.295 0.812 0.295c0.517 0 0.96-0.221 1.329-0.689 0.295-0.369 0.541-0.886 0.689-1.526 0.123-0.517 0.197-1.034 0.197-1.55 0-0.837-0.271-1.501-0.812-1.993-0.541-0.468-1.23-0.714-2.092-0.714-0.64 0-1.23 0.148-1.772 0.443s-0.935 0.714-1.23 1.206c-0.295 0.517-0.443 1.107-0.443 1.747 0 0.295 0.049 0.566 0.148 0.812 0.049 0.148 0.123 0.345 0.271 0.541 0.098 0.172 0.148 0.271 0.148 0.32 0 0.148-0.049 0.295-0.098 0.492-0.098 0.246-0.172 0.369-0.271 0.369-0.221 0-0.443-0.098-0.689-0.32s-0.468-0.517-0.615-0.911c-0.197-0.443-0.271-0.935-0.271-1.477 0-0.886 0.246-1.673 0.738-2.363 0.443-0.64 1.058-1.132 1.846-1.501 0.763-0.369 1.575-0.566 2.436-0.566z"></path>
</svg>
