<svg width="1400" height="1428" viewBox="0 0 1400 1428" version="1.1" xmlns="http://www.w3.org/2000/svg" xmlns:xlink="http://www.w3.org/1999/xlink">
<title>Group</title>
<desc>Created using Figma</desc>
<g id="Canvas" transform="translate(3418 460)">
<g id="Group">
<g id="Ellipse">
<use xlink:href="#path0_fill" transform="translate(-2174 -370.001)" fill="url(#paint0_linear)"/>
</g>
<g id="Ellipse">
<use xlink:href="#path0_fill" transform="translate(-3281 -208.001)" fill="url(#paint1_linear)"/>
</g>
<g id="Polygon">
<use xlink:href="#path1_fill" transform="matrix(-0.911736 -0.410776 0.410776 -0.911736 -3249.25 1004.2)" fill="url(#paint2_linear)"/>
</g>
<g id="Ellipse">
<use xlink:href="#path2_fill" transform="translate(-3329 24.9999)" fill="url(#paint3_linear)"/>
</g>
<g id="Ellipse">
<use xlink:href="#path2_fill" transform="translate(-2276 208)" fill="url(#paint4_linear)"/>
</g>
<g id="Ellipse">
<use xlink:href="#path3_fill" transform="matrix(-0.48671 0.873563 -0.873563 -0.48671 -3368.82 634.256)" fill="url(#paint5_linear)"/>
</g>
<g id="Ellipse">
<use xlink:href="#path4_fill" transform="matrix(-0.988453 0.151528 -0.151528 -0.988453 -1995.53 241.497)" fill="url(#paint6_linear)"/>
</g>
<g id="Polygon">
<use xlink:href="#path5_fill" transform="matrix(0.965926 0.258819 -0.258819 0.965926 -2199.83 628.999)" fill="url(#paint7_linear)"/>
</g>
<g id="Polygon">
<use xlink:href="#path1_fill" transform="matrix(-0.911736 -0.410776 0.410776 -0.911736 -2788.25 -385.8)" fill="url(#paint8_linear)"/>
</g>
<g id="Polygon">
<use xlink:href="#path6_fill" transform="matrix(-0.707107 -0.707107 0.707107 -0.707107 -2312.88 629.239)" fill="url(#paint9_linear)"/>
</g>
<g id="Polygon">
<use xlink:href="#path7_fill" transform="matrix(-0.447173 -0.894448 0.894448 -0.447173 -3338.55 282.85)" fill="url(#paint10_linear)"/>
</g>
<g id="Polygon">
<use xlink:href="#path8_fill" transform="matrix(0.560785 -0.827962 0.827962 0.560785 -2161 541.204)" fill="url(#paint11_linear)"/>
</g>
<g id="Polygon">
<use xlink:href="#path9_fill" transform="matrix(0.5 -0.866025 0.866025 0.5 -3218.86 20.475)" fill="url(#paint12_linear)"/>
</g>
<g id="Polygon">
<use xlink:href="#path10_fill" transform="matrix(0.825534 -0.564353 0.564353 0.825534 -2339 23.0797)" fill="url(#paint13_linear)"/>
</g>
<g id="Polygon">
<use xlink:href="#path11_fill" transform="matrix(0.965926 0.258819 -0.258819 0.965926 -2210.73 298.999)" fill="url(#paint14_linear)"/>
</g>
<g id="Polygon">
<use xlink:href="#path5_fill" transform="matrix(0.817752 -0.575571 0.575571 0.817752 -3249 375.106)" fill="url(#paint15_linear)"/>
</g>
<g id="Polygon">
<use xlink:href="#path12_fill" transform="matrix(0.867332 0.497729 -0.497729 0.867332 -3317.45 467)" fill="url(#paint16_linear)"/>
</g>
<g id="Polygon">
<use xlink:href="#path13_fill" transform="matrix(0.897289 0.441444 -0.441444 0.897289 -2294.9 -459)" fill="url(#paint17_linear)"/>
</g>
<g id="Polygon">
<use xlink:href="#path7_fill" transform="matrix(-0.513801 -0.857909 0.857909 -0.513801 -3284.09 -335.023)" fill="url(#paint18_linear)"/>
</g>
<g id="Polygon">
<use xlink:href="#path14_fill" transform="matrix(0.176504 -0.9843 0.9843 0.176504 -3195.59 226.43)" fill="url(#paint19_linear)"/>
</g>
<g id="Polygon">
<use xlink:href="#path15_fill" transform="matrix(-0.707107 -0.707107 0.707107 -0.707107 -2181.44 -89.8802)" fill="url(#paint20_linear)"/>
</g>
<g id="Polygon">
<use xlink:href="#path16_fill" transform="matrix(0.699538 -0.714595 0.714595 0.699538 -3329 -282.916)" fill="url(#paint21_linear)"/>
</g>
<g id="Polygon">
<use xlink:href="#path17_fill" transform="matrix(0.965926 0.258819 -0.258819 0.965926 -3248.71 628)" fill="url(#paint22_linear)"/>
</g>
</g>
</g>
<defs>
<linearGradient id="paint0_linear" x1="0" y1="0" x2="1" y2="0" gradientUnits="userSpaceOnUse" gradientTransform="matrix(47.5 95 -95 160.816 95 -80.408)">
<stop offset="0" stop-color="#FD988C"/>
<stop offset="0.546961" stop-color="#FB808E"/>
<stop offset="1" stop-color="#E65570"/>
</linearGradient>
<linearGradient id="paint1_linear" x1="0" y1="0" x2="1" y2="0" gradientUnits="userSpaceOnUse" gradientTransform="matrix(47.5 95 -95 160.816 95 -80.408)">
<stop offset="0" stop-color="#FD988C"/>
<stop offset="0.546961" stop-color="#FB808E"/>
<stop offset="1" stop-color="#E65570"/>
</linearGradient>
<linearGradient id="paint2_linear" x1="0" y1="0" x2="1" y2="0" gradientUnits="userSpaceOnUse" gradientTransform="matrix(66.5008 88.818 -67.7371 182.983 68.4715 -79.4313)">
<stop offset="0" stop-color="#FD988C"/>
<stop offset="0.546961" stop-color="#FB808E"/>
<stop offset="1" stop-color="#E65570"/>
</linearGradient>
<linearGradient id="paint3_linear" x1="0" y1="0" x2="1" y2="0" gradientUnits="userSpaceOnUse" gradientTransform="matrix(23.5 47 -47 79.5616 47 -39.7808)">
<stop offset="0" stop-color="#FD988C"/>
<stop offset="0.546961" stop-color="#FB808E"/>
<stop offset="1" stop-color="#E65570"/>
</linearGradient>
<linearGradient id="paint4_linear" x1="0" y1="0" x2="1" y2="0" gradientUnits="userSpaceOnUse" gradientTransform="matrix(23.5 47 -47 79.5616 47 -39.7808)">
<stop offset="0" stop-color="#FD988C"/>
<stop offset="0.546961" stop-color="#FB808E"/>
<stop offset="1" stop-color="#E65570"/>
</linearGradient>
<linearGradient id="paint5_linear" x1="0" y1="0" x2="1" y2="0" gradientUnits="userSpaceOnUse" gradientTransform="matrix(28 56 -56 94.7968 56 -47.3984)">
<stop offset="0" stop-color="#FD988C"/>
<stop offset="0.546961" stop-color="#FB808E"/>
<stop offset="1" stop-color="#E65570"/>
</linearGradient>
<linearGradient id="paint6_linear" x1="0" y1="0" x2="1" y2="0" gradientUnits="userSpaceOnUse" gradientTransform="matrix(29.5905 59.181 -59.181 100.182 59.181 -50.0908)">
<stop offset="0" stop-color="#FD988C"/>
<stop offset="0.546961" stop-color="#FB808E"/>
<stop offset="1" stop-color="#E65570"/>
</linearGradient>
<linearGradient id="paint7_linear" x1="0" y1="0" x2="1" y2="0" gradientUnits="userSpaceOnUse" gradientTransform="matrix(83.6057 111.663 -85.16 230.049 86.0833 -99.8621)">
<stop offset="0" stop-color="#FD988C"/>
<stop offset="0.546961" stop-color="#FB808E"/>
<stop offset="1" stop-color="#E65570"/>
</linearGradient>
<linearGradient id="paint8_linear" x1="0" y1="0" x2="1" y2="0" gradientUnits="userSpaceOnUse" gradientTransform="matrix(66.5008 88.818 -67.7371 182.983 68.4715 -79.4313)">
<stop offset="0" stop-color="#FD988C"/>
<stop offset="0.546961" stop-color="#FB808E"/>
<stop offset="1" stop-color="#E65570"/>
</linearGradient>
<linearGradient id="paint9_linear" x1="0" y1="0" x2="1" y2="0" gradientUnits="userSpaceOnUse" gradientTransform="matrix(66.5008 88.818 -67.7371 182.983 68.4715 -79.4313)">
<stop offset="0" stop-color="#FD988C"/>
<stop offset="0.546961" stop-color="#FB808E"/>
<stop offset="1" stop-color="#E65570"/>
</linearGradient>
<linearGradient id="paint10_linear" x1="0" y1="0" x2="1" y2="0" gradientUnits="userSpaceOnUse" gradientTransform="matrix(80.5376 107.565 -82.0349 221.607 82.9243 -96.1975)">
<stop offset="0" stop-color="#FD988C"/>
<stop offset="0.546961" stop-color="#FB808E"/>
<stop offset="1" stop-color="#E65570"/>
</linearGradient>
<linearGradient id="paint11_linear" x1="0" y1="0" x2="1" y2="0" gradientUnits="userSpaceOnUse" gradientTransform="matrix(34.8317 46.5209 -35.4792 95.8427 35.8639 -41.6044)">
<stop offset="0" stop-color="#FD988C"/>
<stop offset="0.546961" stop-color="#FB808E"/>
<stop offset="1" stop-color="#E65570"/>
</linearGradient>
<linearGradient id="paint12_linear" x1="0" y1="0" x2="1" y2="0" gradientUnits="userSpaceOnUse" gradientTransform="matrix(39.1285 52.2598 -39.856 107.666 40.2881 -46.7367)">
<stop offset="0" stop-color="#FD988C"/>
<stop offset="0.546961" stop-color="#FB808E"/>
<stop offset="1" stop-color="#E65570"/>
</linearGradient>
<linearGradient id="paint13_linear" x1="0" y1="0" x2="1" y2="0" gradientUnits="userSpaceOnUse" gradientTransform="matrix(68.6002 91.622 -69.8756 188.76 70.6332 -81.939)">
<stop offset="0" stop-color="#FD988C"/>
<stop offset="0.546961" stop-color="#FB808E"/>
<stop offset="1" stop-color="#E65570"/>
</linearGradient>
<linearGradient id="paint14_linear" x1="0" y1="0" x2="1" y2="0" gradientUnits="userSpaceOnUse" gradientTransform="matrix(36.8543 49.2224 -37.5395 101.408 37.9465 -44.0204)">
<stop offset="0" stop-color="#FD988C"/>
<stop offset="0.546961" stop-color="#FB808E"/>
<stop offset="1" stop-color="#E65570"/>
</linearGradient>
<linearGradient id="paint15_linear" x1="0" y1="0" x2="1" y2="0" gradientUnits="userSpaceOnUse" gradientTransform="matrix(83.6057 111.663 -85.16 230.049 86.0833 -99.8621)">
<stop offset="0" stop-color="#FD988C"/>
<stop offset="0.546961" stop-color="#FB808E"/>
<stop offset="1" stop-color="#E65570"/>
</linearGradient>
<linearGradient id="paint16_linear" x1="0" y1="0" x2="1" y2="0" gradientUnits="userSpaceOnUse" gradientTransform="matrix(33.9095 45.2893 -34.5399 93.3053 34.9144 -40.503)">
<stop offset="0" stop-color="#FD988C"/>
<stop offset="0.546961" stop-color="#FB808E"/>
<stop offset="1" stop-color="#E65570"/>
</linearGradient>
<linearGradient id="paint17_linear" x1="0" y1="0" x2="1" y2="0" gradientUnits="userSpaceOnUse" gradientTransform="matrix(45.1804 60.3426 -46.0204 124.318 46.5193 -53.9654)">
<stop offset="0" stop-color="#FD988C"/>
<stop offset="0.546961" stop-color="#FB808E"/>
<stop offset="1" stop-color="#E65570"/>
</linearGradient>
<linearGradient id="paint18_linear" x1="0" y1="0" x2="1" y2="0" gradientUnits="userSpaceOnUse" gradientTransform="matrix(80.5376 107.565 -82.0349 221.607 82.9243 -96.1975)">
<stop offset="0" stop-color="#FD988C"/>
<stop offset="0.546961" stop-color="#FB808E"/>
<stop offset="1" stop-color="#E65570"/>
</linearGradient>
<linearGradient id="paint19_linear" x1="0" y1="0" x2="1" y2="0" gradientUnits="userSpaceOnUse" gradientTransform="matrix(25.8263 34.4935 -26.3065 71.0636 26.5917 -30.8481)">
<stop offset="0" stop-color="#FD988C"/>
<stop offset="0.546961" stop-color="#FB808E"/>
<stop offset="1" stop-color="#E65570"/>
</linearGradient>
<linearGradient id="paint20_linear" x1="0" y1="0" x2="1" y2="0" gradientUnits="userSpaceOnUse" gradientTransform="matrix(27.7815 37.1048 -28.298 76.4436 28.6048 -33.1834)">
<stop offset="0" stop-color="#FD988C"/>
<stop offset="0.546961" stop-color="#FB808E"/>
<stop offset="1" stop-color="#E65570"/>
</linearGradient>
<linearGradient id="paint21_linear" x1="0" y1="0" x2="1" y2="0" gradientUnits="userSpaceOnUse" gradientTransform="matrix(24.0301 32.0944 -24.4769 66.1211 24.7422 -28.7026)">
<stop offset="0" stop-color="#FD988C"/>
<stop offset="0.546961" stop-color="#FB808E"/>
<stop offset="1" stop-color="#E65570"/>
</linearGradient>
<linearGradient id="paint22_linear" x1="0" y1="0" x2="1" y2="0" gradientUnits="userSpaceOnUse" gradientTransform="matrix(49.7089 66.3908 -50.633 136.779 51.182 -59.3744)">
<stop offset="0" stop-color="#FD988C"/>
<stop offset="0.546961" stop-color="#FB808E"/>
<stop offset="1" stop-color="#E65570"/>
</linearGradient>
<path id="path0_fill" d="M 95 47.5C 95 73.7335 73.7335 95 47.5 95C 21.2665 95 0 73.7335 0 47.5C 0 21.2665 21.2665 0 47.5 0C 73.7335 0 95 21.2665 95 47.5Z"/>
<path id="path1_fill" d="M 60.1888 0L 112.314 30.0944L 112.314 90.2832L 60.1888 120.378L 8.06377 90.2832L 8.06377 30.0944L 60.1888 0Z"/>
<path id="path2_fill" d="M 47 23.5C 47 36.4787 36.4787 47 23.5 47C 10.5213 47 0 36.4787 0 23.5C 0 10.5213 10.5213 0 23.5 0C 36.4787 0 47 10.5213 47 23.5Z"/>
<path id="path3_fill" d="M 56 28C 56 43.464 43.464 56 28 56C 12.536 56 0 43.464 0 28C 0 12.536 12.536 0 28 0C 43.464 0 56 12.536 56 28Z"/>
<path id="path4_fill" d="M 59.181 29.5905C 59.181 45.9329 45.9329 59.181 29.5905 59.181C 13.2481 59.181 0 45.9329 0 29.5905C 0 13.2481 13.2481 0 29.5905 0C 45.9329 0 59.181 13.2481 59.181 29.5905Z"/>
<path id="path5_fill" d="M 75.6702 0L 141.203 113.505L 10.1379 113.505L 75.6702 0Z"/>
<path id="path6_fill" d="M 60.1888 0L 102.749 17.6289L 120.378 60.1888L 102.749 102.749L 60.1888 120.378L 17.6289 102.749L 0 60.1888L 17.6289 17.6289L 60.1888 0Z"/>
<path id="path7_fill" d="M 72.8933 0L 145.787 72.8933L 72.8933 145.787L 0 72.8933L 72.8933 0Z"/>
<path id="path8_fill" d="M 31.5256 0L 63.0512 31.5256L 31.5256 63.0512L 0 31.5256L 31.5256 0Z"/>
<path id="path9_fill" d="M 35.4146 0L 70.8292 35.4146L 35.4146 70.8292L 0 35.4146L 35.4146 0Z"/>
<path id="path10_fill" d="M 62.089 0L 121.139 42.9025L 98.5841 112.32L 25.594 112.32L 3.03885 42.9025L 62.089 0Z"/>
<path id="path11_fill" d="M 33.3563 0L 65.08 23.0486L 52.9627 60.3421L 13.75 60.3421L 1.63257 23.0486L 33.3563 0Z"/>
<path id="path12_fill" d="M 30.691 0L 57.2702 46.0365L 4.11181 46.0365L 30.691 0Z"/>
<path id="path13_fill" d="M 40.8921 0L 76.3057 61.3381L 5.4785 61.3381L 40.8921 0Z"/>
<path id="path14_fill" d="M 23.375 0L 46.75 23.375L 23.375 46.75L 0 23.375L 23.375 0Z"/>
<path id="path15_fill" d="M 25.1447 0L 42.9246 7.3647L 50.2893 25.1447L 42.9246 42.9246L 25.1447 50.2893L 7.3647 42.9246L 0 25.1447L 7.3647 7.3647L 25.1447 0Z"/>
<path id="path16_fill" d="M 21.7493 0L 42.4341 15.0284L 34.5332 39.3448L 8.96537 39.3448L 1.06449 15.0284L 21.7493 0Z"/>
<path id="path17_fill" d="M 44.9907 0L 87.7795 31.0878L 71.4356 81.389L 18.5458 81.389L 2.202 31.0878L 44.9907 0Z"/>
</defs>
</svg>
